<?xml version="1.0" encoding="UTF-8"?>
<svg version="1.1" xmlns="http://www.w3.org/2000/svg" width="1024" height="1024">
<path d="M0 0 C1.05904289 0.00212242 1.05904289 0.00212242 2.13948059 0.00428772 C4.39120751 0.00987861 6.64283446 0.02242937 8.89453125 0.03515625 C10.4225246 0.04017243 11.95051952 0.04473513 13.47851562 0.04882812 C17.2213926 0.05984505 20.96419498 0.07710338 24.70703125 0.09765625 C24.70703125 0.75765625 24.70703125 1.41765625 24.70703125 2.09765625 C25.6038562 2.07046509 25.6038562 2.07046509 26.51879883 2.04272461 C73.78615443 1.24142777 119.10473406 28.36352255 152.39453125 59.62109375 C195.12674572 101.01792652 213.53437804 160.10859662 214.77539062 218.30322266 C214.84813432 223.57107863 214.82779986 228.83080277 214.70703125 234.09765625 C214.04703125 234.09765625 213.38703125 234.09765625 212.70703125 234.09765625 C212.73925781 235.36480469 212.77148438 236.63195312 212.8046875 237.9375 C212.76677854 265.70310478 201.99994496 302.03158536 184.70703125 324.09765625 C181.26729056 325.24423648 180.98938199 324.9783464 177.80859375 323.69921875 C169.21539196 320.95750391 160.01166715 321.55695701 151.08203125 321.47265625 C148.30693221 321.43592558 145.53196393 321.39511433 142.75698853 321.3500061 C141.04073823 321.32320111 139.32439396 321.30167415 137.60800171 321.28646851 C132.56410766 321.2207792 127.70200486 320.81020292 122.70703125 320.09765625 C123.98947417 317.32496716 125.12517774 315.62724145 127.20703125 313.28515625 C154.71836821 281.6236906 161.88581598 238.78011363 159.70703125 198.09765625 C157.5196743 168.36745773 146.1077489 137.58184065 127.70703125 114.09765625 C127.02382813 113.21078125 126.340625 112.32390625 125.63671875 111.41015625 C122.66005749 107.60727343 119.67683881 103.96157767 116.20703125 100.59765625 C114.96953125 99.36015625 114.96953125 99.36015625 113.70703125 98.09765625 C113.70703125 97.43765625 113.70703125 96.77765625 113.70703125 96.09765625 C113.145 95.85660156 112.58296875 95.61554688 112.00390625 95.3671875 C109.23942725 93.83920166 107.24915471 91.95683374 104.95703125 89.78515625 C101.36413234 86.49210395 97.87776839 83.71287792 93.67578125 81.26171875 C91.58995732 80.02843396 89.6314884 78.67157784 87.64453125 77.28515625 C55.73733352 56.21131451 15.61086825 49.8593018 -21.89453125 56.61230469 C-54.33092212 63.32998896 -81.61160105 78.2111876 -105.29296875 101.09765625 C-105.95683594 101.70996094 -106.62070312 102.32226562 -107.3046875 102.953125 C-136.12388315 130.16005795 -151.92715494 173.75431799 -153.38825667 212.63320029 C-153.42858873 215.1771221 -153.44067624 217.71938788 -153.44013977 220.2636261 C-153.44381646 221.22434263 -153.44749315 222.18505916 -153.45128125 223.17488831 C-153.46220279 226.36049433 -153.46614191 229.54606762 -153.4699707 232.73168945 C-153.4762435 235.02896729 -153.48289101 237.32624414 -153.48988342 239.6235199 C-153.51080854 247.13181873 -153.52126688 254.64011752 -153.53125 262.1484375 C-153.53530023 264.7383799 -153.53941723 267.3283222 -153.54360008 269.91826439 C-153.56044339 280.68539475 -153.57508376 291.45252151 -153.58234882 302.21966267 C-153.58425837 305.00427057 -153.58617878 307.78887846 -153.58813477 310.57348633 C-153.58861851 311.26549581 -153.58910225 311.95750528 -153.58960065 312.67048474 C-153.59791839 323.90460573 -153.62329665 335.13862087 -153.65571544 346.37269554 C-153.6887772 357.92406646 -153.70646322 369.4753675 -153.70999306 381.02678746 C-153.71234571 387.50581196 -153.72133637 393.9846682 -153.74645424 400.46364784 C-153.76967355 406.54994747 -153.77399288 412.6359672 -153.76369286 418.72229958 C-153.76319609 420.95641509 -153.76955774 423.19054415 -153.7832489 425.42461777 C-153.80088352 428.4722848 -153.79390318 431.5189377 -153.78071594 434.56660461 C-153.79168519 435.45210615 -153.80265443 436.33760769 -153.81395608 437.2499426 C-153.75723896 442.67172774 -152.94705746 445.82310808 -149.29296875 450.09765625 C-143.11224086 453.97665907 -136.80250585 453.46999022 -129.68359375 453.35546875 C-128.47983093 453.34885223 -127.27606812 453.34223572 -126.03582764 453.3354187 C-122.20461051 453.31208074 -118.37397875 453.26836088 -114.54296875 453.22265625 C-110.69774808 453.18759929 -106.85255899 453.15682672 -103.00726318 453.13131714 C-100.61776462 453.11433094 -98.22830044 453.09118161 -95.83892822 453.06130981 C-94.22144684 453.04667191 -94.22144684 453.04667191 -92.57128906 453.03173828 C-91.14734833 453.01483444 -91.14734833 453.01483444 -89.69464111 452.99758911 C-87.29296875 453.09765625 -87.29296875 453.09765625 -84.29296875 454.09765625 C-84.29740997 453.23036896 -84.3018512 452.36308167 -84.306427 451.46951294 C-84.34664721 443.26103172 -84.37702573 435.05258401 -84.39659309 426.84402657 C-84.40699132 422.62481578 -84.4210774 418.40568703 -84.44384766 414.18652344 C-84.46571828 410.10812458 -84.4775671 406.02980419 -84.48272324 401.95135117 C-84.48639364 400.40217734 -84.49356038 398.85300739 -84.50442886 397.30386734 C-84.61372279 381.0669555 -82.91735833 366.40722326 -71.29296875 354.09765625 C-68.76045117 351.85926965 -66.12820919 349.93354461 -63.29296875 348.09765625 C-62.69355469 347.70707031 -62.09414063 347.31648438 -61.4765625 346.9140625 C-47.78639041 338.55295069 -28.55068279 340.95465915 -13.0480957 341.01245117 C-11.06685451 341.01605638 -9.08561256 341.01925916 -7.10437012 341.02209473 C-1.77194617 341.03138098 3.56043139 341.04769557 8.89282966 341.06646514 C12.23248892 341.07817317 15.57215013 341.08881815 18.91181374 341.09920692 C29.38603224 341.13234852 39.86021866 341.17030116 50.33439606 341.21457213 C62.38168736 341.26536787 74.42887835 341.29957741 86.47625893 341.31975287 C95.82454875 341.33646324 105.17271184 341.3683696 114.52091628 341.41159898 C120.08958038 341.43699586 125.65808729 341.45601562 131.22681236 341.45897484 C136.46133177 341.46214169 141.69544101 341.4842644 146.92983246 341.5205307 C148.8416923 341.53058453 150.75360138 341.53399947 152.66548347 341.53000069 C167.54169169 341.5048632 181.14521109 342.51289132 192.70703125 353.09765625 C204.56356778 366.0486423 204.30274167 381.49231533 204.203125 397.98046875 C204.2032803 400.08788096 204.20477444 402.19529345 204.20753479 404.30270386 C204.20891214 408.69851458 204.19647038 413.09399638 204.17358398 417.48974609 C204.14516658 423.09907599 204.14795534 428.70786174 204.1606741 434.31723213 C204.16765688 438.66177956 204.15981293 443.00620311 204.14741707 447.35073471 C204.14293029 449.41820677 204.14254125 451.48569226 204.14648247 453.55316544 C204.16315827 469.99052308 203.17886953 484.64704283 191.55078125 497.40234375 C178.53225516 509.37276816 163.66247304 509.53593649 146.98876953 509.40649414 C145.01646656 509.40236712 143.04416034 509.3996021 141.07185364 509.39808655 C136.84691753 509.392022 132.62215992 509.37658014 128.39728165 509.3537159 C121.71569678 509.31776416 115.03417469 509.30391453 108.35250854 509.29307556 C95.38388175 509.26900963 82.41538393 509.22229821 69.44683075 509.1734848 C52.91763462 509.11253806 36.38842108 509.06299773 19.85914218 509.03149027 C13.21725422 509.01810793 6.57551103 508.99423421 -0.0663116 508.96208775 C-4.19325143 508.94398756 -8.32018214 508.93408663 -12.44715309 508.92632103 C-14.36037434 508.92097906 -16.27358953 508.91216424 -18.18677711 508.89962006 C-20.79840626 508.88294327 -23.40977836 508.87863762 -26.02145386 508.87733459 C-26.77787198 508.86946255 -27.5342901 508.86159051 -28.31362998 508.85347992 C-32.68749165 508.86671245 -36.22722679 509.48279225 -40.29296875 511.09765625 C-40.29296875 510.43765625 -40.29296875 509.77765625 -40.29296875 509.09765625 C-42.27296875 509.09765625 -44.25296875 509.09765625 -46.29296875 509.09765625 C-46.29296875 509.75765625 -46.29296875 510.41765625 -46.29296875 511.09765625 C-47.28296875 511.09765625 -48.27296875 511.09765625 -49.29296875 511.09765625 C-49.62296875 511.42765625 -49.95296875 511.75765625 -50.29296875 512.09765625 C-56.00725446 511.38337054 -56.00725446 511.38337054 -57.29296875 510.09765625 C-57.95296875 510.75765625 -58.61296875 511.41765625 -59.29296875 512.09765625 C-61.91796875 511.72265625 -61.91796875 511.72265625 -64.29296875 511.09765625 C-64.29296875 510.43765625 -64.29296875 509.77765625 -64.29296875 509.09765625 C-68.25296875 509.42765625 -72.21296875 509.75765625 -76.29296875 510.09765625 C-76.29296875 509.43765625 -76.29296875 508.77765625 -76.29296875 508.09765625 C-77.13921814 508.20484985 -77.13921814 508.20484985 -78.00256348 508.31420898 C-85.31385943 509.15156171 -92.53414918 509.21054815 -99.88671875 509.16015625 C-101.15519653 509.15636963 -102.42367432 509.15258301 -103.73059082 509.14868164 C-107.75142024 509.13653749 -111.77217541 509.11807368 -115.79296875 509.09765625 C-121.11588022 509.07083183 -126.43876069 509.05114264 -131.76171875 509.03515625 C-132.98870483 509.02685791 -134.21569092 509.01855957 -135.4798584 509.01000977 C-136.60863403 509.00670654 -137.73740967 509.00340332 -138.90039062 509 C-139.89615112 508.99476318 -140.89191162 508.98952637 -141.91784668 508.98413086 C-144.31075525 508.93821583 -144.31075525 508.93821583 -146.29296875 510.09765625 C-146.29296875 509.43765625 -146.29296875 508.77765625 -146.29296875 508.09765625 C-147.26234375 508.26265625 -148.23171875 508.42765625 -149.23046875 508.59765625 C-164.18111433 510.64854004 -178.93133229 508.32981135 -191.4140625 499.6171875 C-198.34445426 494.05797002 -201.93738217 487.17409258 -205.29296875 479.09765625 C-205.62296875 478.43765625 -205.95296875 477.77765625 -206.29296875 477.09765625 C-206.45617033 474.84352465 -206.55444847 472.5846216 -206.62475586 470.32568359 C-206.64680399 469.62036625 -206.66885212 468.9150489 -206.69156837 468.18835831 C-206.76222973 465.81190792 -206.82353715 463.43535439 -206.8828125 461.05859375 C-206.90450941 460.22861248 -206.92620632 459.39863121 -206.94856071 458.54349899 C-207.50088553 436.66493697 -207.19679286 414.7938716 -206.89807129 392.91357422 C-206.82572065 387.49453199 -206.76192304 382.07538851 -206.69726562 376.65625 C-206.57056195 366.13660753 -206.4348825 355.61710381 -206.29296875 345.09765625 C-207.16913849 345.09179001 -208.04530823 345.08592377 -208.94802856 345.07987976 C-217.21681149 345.02190645 -225.48532563 344.94980309 -233.75384712 344.86194134 C-238.00449848 344.81726904 -242.25505469 344.77800612 -246.50585938 344.7512207 C-250.61036527 344.7251562 -254.71450441 344.68473186 -258.81878281 344.63446999 C-260.38236799 344.61782248 -261.94601658 344.60629503 -263.50967789 344.60004234 C-265.70491978 344.59037787 -267.89922787 344.56229269 -270.09423828 344.5300293 C-271.34222198 344.51892624 -272.59020569 344.50782318 -273.87600708 344.49638367 C-278.74918793 343.92772911 -282.03583677 342.22245854 -285.66796875 338.97265625 C-287.94239651 334.94866868 -288.08237835 331.61882035 -287.29296875 327.09765625 C-285.02904794 322.56981463 -282.7637235 320.35788936 -278.29296875 318.09765625 C-275.45161438 317.58937073 -275.45161438 317.58937073 -272.3527832 317.41625977 C-271.2056485 317.35197784 -270.05851379 317.28769592 -268.87661743 317.22146606 C-263.02743045 317.01938522 -257.18822294 316.97486205 -251.3359375 317 C-250.06696121 317.00141495 -248.79798492 317.0028299 -247.49055481 317.00428772 C-244.16491662 317.00889118 -240.83935119 317.01782819 -237.51373291 317.0289917 C-234.10095844 317.03933872 -230.68817636 317.0438134 -227.27539062 317.04882812 C-220.61456378 317.05977958 -213.95377045 317.07645835 -207.29296875 317.09765625 C-206.55150292 313.78758289 -206.17185071 310.74365943 -206.19049072 307.35400391 C-206.19319473 306.42879944 -206.19589874 305.50359497 -206.19868469 304.550354 C-206.21103401 303.04622955 -206.21103401 303.04622955 -206.22363281 301.51171875 C-206.22842148 300.44612732 -206.23321014 299.38053589 -206.23814392 298.28265381 C-206.25581859 294.76259357 -206.28156523 291.24265639 -206.30859375 287.72265625 C-206.32528785 285.2755536 -206.34195001 282.82845073 -206.35858154 280.38134766 C-206.39504157 275.25354148 -206.4362682 270.12579602 -206.47998047 264.99804688 C-206.53501821 258.42403799 -206.57152556 251.8500648 -206.60361099 245.27590942 C-206.63145612 240.22296541 -206.67250948 235.17019097 -206.71721649 230.11737061 C-206.73642259 227.69329175 -206.75071301 225.26916882 -206.7600174 222.84503174 C-206.7743277 219.45760158 -206.80722393 216.07083556 -206.84472656 212.68359375 C-206.84486252 211.68084412 -206.84499847 210.67809448 -206.84513855 209.6449585 C-206.90477873 202.84240534 -206.90477873 202.84240534 -210.29296875 197.09765625 C-213.96180928 194.26260465 -216.65660293 193.72448141 -221.24145508 193.72875977 C-222.41650101 193.72187637 -223.59154694 193.71499298 -224.80220032 193.707901 C-226.06372421 193.7140593 -227.32524811 193.72021759 -228.625 193.7265625 C-230.62029916 193.71362765 -232.61559847 193.70066999 -234.61088848 193.68639278 C-239.51698642 193.65645473 -244.42317609 193.65987646 -249.3293457 193.66186523 C-252.08541841 193.66190661 -254.84110117 193.65126707 -257.59709167 193.63011169 C-260.18696016 193.61146578 -262.77701699 193.60947823 -265.36689758 193.62635803 C-273.66578007 193.55604676 -279.37016656 192.71076353 -285.66796875 186.91015625 C-287.91002619 183.02967222 -289.43277859 179.6451554 -289.29296875 175.09765625 C-286.95030282 169.53492142 -283.6921619 165.79672424 -278.29296875 163.09765625 C-275.13275146 162.71911621 -275.13275146 162.71911621 -271.53417969 162.71289062 C-270.54527489 162.70483147 -270.54527489 162.70483147 -269.53639221 162.6966095 C-268.11125357 162.68686154 -266.68605578 162.68387832 -265.26088715 162.68696594 C-262.99779764 162.69146499 -260.73548159 162.67738381 -258.47247314 162.65856934 C-253.66265086 162.62185583 -248.85291045 162.60810038 -244.04296875 162.59765625 C-238.47937346 162.58553695 -232.91615616 162.56375604 -227.3527298 162.51765442 C-225.13650722 162.50418975 -222.92077549 162.50823652 -220.70452881 162.51306152 C-208.55257594 162.55559062 -208.55257594 162.55559062 -197.984375 157.15234375 C-195.35982747 152.41239879 -193.87171354 147.37128531 -192.23046875 142.22265625 C-185.74274228 122.77987848 -177.18586982 104.81486934 -165.29296875 88.09765625 C-164.88755859 87.52402344 -164.48214844 86.95039063 -164.06445312 86.359375 C-145.68296776 60.66741346 -121.78580241 41.27359527 -94.29296875 26.09765625 C-93.66664551 25.74751465 -93.04032227 25.39737305 -92.39501953 25.03662109 C-68.2043292 11.67262282 -40.55136254 4.14576589 -13.13671875 1.421875 C-0.62405908 -0.0047057 -0.62405908 -0.0047057 0 0 Z " fill="#37C982" transform="translate(577.29296875,231.90234375)"/>
<path d="M0 0 C0.82899888 -0.00130199 1.65799775 -0.00260397 2.5121178 -0.00394541 C5.28255175 -0.00454089 8.05239063 0.01644774 10.82273865 0.03746033 C12.81235537 0.04162203 14.80197511 0.0445094 16.79159546 0.04621887 C22.19288676 0.05500936 27.59391688 0.08311188 32.99511075 0.1157372 C37.51000935 0.14129656 42.02492197 0.15753173 46.5398621 0.17380232 C57.19935333 0.21239918 67.85868575 0.26669553 78.51805115 0.33091736 C89.49465568 0.39679653 100.47114342 0.43734621 111.44790512 0.46511561 C120.88518171 0.48983674 130.32230779 0.52993722 139.75947136 0.58231825 C145.38974739 0.61344653 151.01990049 0.63897768 156.6502552 0.64990425 C161.951975 0.66090453 167.25324973 0.69124392 172.55478859 0.73600388 C174.49243004 0.74923407 176.43013044 0.75586809 178.36781693 0.75514412 C193.3132433 0.75571288 207.00173766 1.71206797 218.62132263 12.34971619 C230.47785916 25.30070224 230.21703305 40.74437527 230.11741638 57.23252869 C230.11757168 59.3399409 230.11906583 61.44735339 230.12182617 63.55476379 C230.12320352 67.95057451 230.11076176 72.34605632 230.08787537 76.74180603 C230.05945797 82.35113593 230.06224672 87.95992167 230.07496548 93.56929207 C230.08194826 97.9138395 230.07410431 102.25826305 230.06170845 106.60279465 C230.05722168 108.67026671 230.05683263 110.7377522 230.06077385 112.80522537 C230.07744965 129.24258302 229.09316091 143.89910277 217.46507263 156.65440369 C204.57504471 168.50667512 189.80032905 168.79808613 173.27366638 168.75376892 C171.34064847 168.75948073 169.40763393 168.76644811 167.47462463 168.77456665 C162.25563854 168.79242159 157.03682127 168.79134439 151.81781387 168.78562427 C147.44912361 168.7825219 143.08046529 168.78863635 138.71177959 168.79466301 C128.40132651 168.80868088 118.09095633 168.80716922 107.78050232 168.79576111 C97.16718776 168.78427694 86.55412582 168.79836693 75.94084454 168.82515758 C66.80416689 168.84735172 57.66756834 168.85394376 48.53086567 168.84808117 C43.08454647 168.84471998 37.63838925 168.84707118 32.1920929 168.8643322 C27.07012614 168.87985899 21.94853237 168.87578232 16.82658005 168.85702705 C14.95459436 168.85335732 13.08258066 168.85640213 11.21062088 168.86691284 C-3.48270228 168.94307141 -15.86329539 167.46808475 -27.37867737 157.34971619 C-34.19430706 150.1939591 -39.4671382 141.15715509 -39.52584839 131.07040405 C-39.53300369 130.22255844 -39.540159 129.37471283 -39.54753113 128.50117493 C-39.55022003 127.57906219 -39.55290894 126.65694946 -39.55567932 125.70689392 C-39.56225052 124.72911484 -39.56882172 123.75133575 -39.57559204 122.743927 C-39.5953055 119.50705383 -39.60698522 116.27022708 -39.61695862 113.03330994 C-39.62103415 111.92538652 -39.62510967 110.81746311 -39.6293087 109.67596626 C-39.65016414 103.8083477 -39.66446645 97.94075246 -39.67384338 92.07310486 C-39.68488834 86.02968915 -39.71926803 79.98664361 -39.75901508 73.94335842 C-39.78523812 69.28229109 -39.79354044 64.62131106 -39.79712486 59.96017647 C-39.80197847 57.73358227 -39.8135572 55.50699165 -39.83216286 53.28046989 C-39.95723613 37.3169472 -39.29499623 23.8026829 -27.71852112 11.59971619 C-23.68415364 7.92375493 -19.3077786 5.60696815 -14.37867737 3.34971619 C-13.51838456 2.84219031 -12.65809175 2.33466444 -11.77172947 1.811759 C-7.74654924 0.07733652 -4.29870007 -0.05546118 0 0 Z " fill="#FEEC24" transform="translate(551.3786773681641,572.6502838134766)"/>
<path d="M0 0 C2.70567626 1.82339052 4.53728718 3.07457436 6 6 C6.1201369 7.91509969 6.17734868 9.83426943 6.20532227 11.75292969 C6.2352401 13.56818146 6.2352401 13.56818146 6.26576233 15.42010498 C6.28278847 16.75402648 6.29966558 18.08794989 6.31640625 19.421875 C6.33702222 20.80121415 6.35801974 22.18054765 6.37937927 23.55987549 C6.42343168 26.46859415 6.46429917 29.37733393 6.50268555 32.28613281 C6.55101936 35.94592088 6.60471774 39.60560087 6.66072273 43.26527882 C6.70398609 46.11372123 6.74493962 48.96219463 6.78564072 51.81067467 C6.80613694 53.21717145 6.82740916 54.62365713 6.8494606 56.03013039 C6.95778572 62.97379058 7.03012919 69.90859888 6.86865234 76.85229492 C6.83952003 78.38705475 6.83952003 78.38705475 6.80979919 79.95281982 C6.76872651 81.81416493 6.70913461 83.67523847 6.62684631 85.53521729 C6.46474363 90.42173467 6.46474363 90.42173467 9.09375 94.4128418 C11.49158215 95.89369228 11.49158215 95.89369228 14.25390625 96.8671875 C20.11059884 99.28317733 24.41723884 105.19292546 27 110.875 C28 114 28 114 28 117 C29.24418701 117.12238037 30.48837402 117.24476074 31.77026367 117.37084961 C37.45632882 118.00451359 43.05246443 119.02454247 48.67578125 120.06640625 C50.90690047 120.47331045 53.13802027 120.8802114 55.36914062 121.28710938 C58.85637295 121.9270477 62.34338331 122.56818198 65.83032227 123.2097168 C69.21578962 123.83148892 72.60199889 124.44909084 75.98828125 125.06640625 C77.03309158 125.26013321 78.07790192 125.45386017 79.15437317 125.65345764 C80.12605942 125.83041672 81.09774567 126.00737579 82.09887695 126.18969727 C82.95109329 126.34656509 83.80330963 126.50343292 84.68135071 126.66505432 C87.26936487 127.09531545 87.26936487 127.09531545 91 127 C91 127.66 91 128.32 91 129 C91.5775 129.0825 92.155 129.165 92.75 129.25 C95.84461361 130.28153787 97.08928472 131.33864658 99 134 C99.47713441 138.29420973 99.46799392 140.83001519 97.875 144.8125 C95.30322285 147.81290668 93.83353184 148.81028322 90 150 C81.29755984 149.91970067 72.80807205 148.37292989 64.3125 146.625 C62.04197542 146.17422329 59.77113956 145.72501171 57.5 145.27734375 C56.39914062 145.05933105 55.29828125 144.84131836 54.1640625 144.61669922 C49.72263552 143.7510322 45.27323099 142.94687447 40.8125 142.1875 C40.11358643 142.06391113 39.41467285 141.94032227 38.69458008 141.81298828 C33.32795289 140.9151445 28.22235735 140.25921422 23 142 C22.3044401 143.31849105 21.64119103 144.65423023 21 146 C14.94118395 152.9243612 7.66201939 156.30935092 -1.39453125 157.4140625 C-11.85424399 157.85228641 -20.49681123 155.28893835 -28.5 148.4375 C-29.67935516 147.30473059 -30.84787489 146.16045373 -32 145 C-32.804375 144.278125 -33.60875 143.55625 -34.4375 142.8125 C-36.19572181 140.7729627 -36.53732758 139.62181036 -37 137 C-37.33 136.11699219 -37.66 135.23398437 -38 134.32421875 C-40.18446187 127.06258964 -40.33130399 118.13299371 -37.375 111.0625 C-36.62731929 109.68355945 -35.83535371 108.32766248 -35 107 C-34.59910156 106.31550781 -34.19820312 105.63101563 -33.78515625 104.92578125 C-29.83520921 98.91499227 -24.31424035 95.30156358 -18 92 C-17.34 92 -16.68 92 -16 92 C-16.00666183 90.97571396 -16.01332367 89.95142792 -16.02018738 88.89610291 C-16.0810773 79.22981063 -16.12601047 69.56355741 -16.15543652 59.89711666 C-16.17107346 54.92783026 -16.19227576 49.95869905 -16.22631836 44.98950195 C-16.25898206 40.1914016 -16.27686784 35.39345025 -16.28463173 30.59524727 C-16.29016265 28.76726499 -16.30096322 26.93929061 -16.31719017 25.11137199 C-16.33905774 22.54534334 -16.34196305 19.97992563 -16.34057617 17.41381836 C-16.351362 16.66287399 -16.36214783 15.91192963 -16.3732605 15.13822937 C-16.34364746 10.05433304 -15.40106585 6.50822736 -13 2 C-8.50699977 -1.26763653 -5.30531195 -1.44690326 0 0 Z " fill="#FEEB27" transform="translate(589,337)"/>
<path d="M0 0 C1.43589015 -0.00128164 1.43589015 -0.00128164 2.90078819 -0.00258917 C6.12836598 -0.00424444 9.35589252 0.0012782 12.58346558 0.00672913 C14.88914997 0.00701101 17.19483446 0.00685323 19.5005188 0.00628662 C25.77706751 0.00599871 32.05359726 0.01189446 38.33014154 0.01886058 C44.88315899 0.02509512 51.43617683 0.025698 57.98919678 0.02688599 C68.99360484 0.0294783 79.99800623 0.03589891 91.00241089 0.04481506 C102.33834803 0.0539903 113.67428328 0.06107059 125.01022339 0.06532288 C125.70865491 0.0655856 126.40708643 0.06584832 127.12668253 0.06611901 C130.63041393 0.06742402 134.13414533 0.06868773 137.63787675 0.06993091 C166.71723785 0.08030217 195.79659153 0.09819401 224.87594604 0.12025452 C224.87594604 7.71025452 224.87594604 15.30025452 224.87594604 23.12025452 C195.29528424 23.2106792 165.71463988 23.28229251 136.13386904 23.32451583 C132.64164448 23.32951867 129.14942019 23.33469595 125.65719604 23.33998108 C124.61433698 23.34155494 124.61433698 23.34155494 123.55041005 23.3431606 C112.29296423 23.36056616 101.03560011 23.39210466 89.77820276 23.4288657 C78.22718766 23.46627098 66.67623004 23.48819007 55.12515557 23.4966085 C48.6370143 23.5018284 42.14905835 23.51411772 35.66097641 23.54317474 C29.55595796 23.57029506 23.45120143 23.57870623 17.34612846 23.57268524 C15.10395447 23.57378698 12.86177184 23.58176074 10.61964989 23.59707642 C7.56046168 23.61695087 4.50226491 23.61220247 1.4430542 23.60127258 C0.10938334 23.61874963 0.10938334 23.61874963 -1.25123036 23.63657975 C-6.68665767 23.58401785 -9.83677349 22.78045665 -14.12405396 19.12025452 C-16.80526472 15.09843837 -16.9374973 11.8478906 -16.12405396 7.12025452 C-12.14921 -0.01673296 -7.49380347 -0.02412879 0 0 Z " fill="#123E3F" transform="translate(555.1240539550781,603.8797454833984)"/>
<path d="M0 0 C0.495 0.99 0.495 0.99 1 2 C0.38253906 2.20753906 -0.23492188 2.41507813 -0.87109375 2.62890625 C-12.51145279 6.86337476 -19.27848327 13.29983911 -25.11877441 24.06152344 C-29.5679833 34.12423017 -28.57694869 45.23012399 -28.53125 56 C-28.53394886 58.24479337 -28.53783455 60.4895856 -28.54284668 62.734375 C-28.54872313 67.42459309 -28.54023846 72.11450516 -28.52148438 76.8046875 C-28.49869635 82.79305384 -28.51182936 88.78070289 -28.53577423 94.76904297 C-28.55028224 99.4001193 -28.54560327 104.03102777 -28.53526306 108.66210938 C-28.5326096 110.86914151 -28.53581648 113.07618927 -28.54518127 115.28320312 C-28.59467462 130.22321393 -28.14251641 143.08085655 -18 155 C-12.82493119 159.93503779 -7.7646182 162.82156363 -1 165 C0.3465266 165.63960014 1.68922893 166.289999 3 167 C0.69 167.99 -1.62 168.98 -4 170 C-4 169.34 -4 168.68 -4 168 C-5.98 168 -7.96 168 -10 168 C-10 168.66 -10 169.32 -10 170 C-10.99 170 -11.98 170 -13 170 C-13.33 170.33 -13.66 170.66 -14 171 C-19.71428571 170.28571429 -19.71428571 170.28571429 -21 169 C-21.66 169.66 -22.32 170.32 -23 171 C-25.625 170.625 -25.625 170.625 -28 170 C-28 169.34 -28 168.68 -28 168 C-29.155 167.979375 -30.31 167.95875 -31.5 167.9375 C-38.62459816 167.03119069 -43.01782936 161.44309885 -47.25 156.0625 C-48.18792533 154.72296978 -49.1059012 153.36917219 -50 152 C-50.38027344 151.43152344 -50.76054687 150.86304688 -51.15234375 150.27734375 C-57.50461992 139.37060543 -57.47442436 125.2296058 -57 113 C-51.375 111.875 -51.375 111.875 -48 113 C-48.00444122 112.13271271 -48.00888245 111.26542542 -48.01345825 110.37185669 C-48.05367846 102.16337547 -48.08405698 93.95492776 -48.10362434 85.74637032 C-48.11402257 81.52715953 -48.12810865 77.30803078 -48.15087891 73.08886719 C-48.17274953 69.01046833 -48.18459835 64.93214794 -48.18975449 60.85369492 C-48.19342489 59.30452109 -48.20059163 57.75535114 -48.21146011 56.20621109 C-48.32075404 39.96929925 -46.62438958 25.30956701 -35 13 C-32.46748242 10.7616134 -29.83524044 8.83588836 -27 7 C-26.40058594 6.60941406 -25.80117188 6.21882812 -25.18359375 5.81640625 C-17.53577237 1.14558917 -8.86741695 -0.27710678 0 0 Z " fill="#113F3D" transform="translate(541,573)"/>
<path d="M0 0 C1.03326416 -0.00525696 2.06652832 -0.01051392 3.13110352 -0.01593018 C6.53881043 -0.02910876 9.94604828 -0.02039872 13.35375977 -0.01025391 C15.7273823 -0.0122754 18.10100422 -0.01518747 20.47462463 -0.01895142 C25.44684773 -0.02337201 30.41890901 -0.0169526 35.39111328 -0.00292969 C41.75767891 0.01415248 48.12386485 0.00432516 54.49041653 -0.01364708 C59.3915339 -0.02449987 64.29256161 -0.02103149 69.19368172 -0.0132637 C71.54078275 -0.01126536 73.88789198 -0.01370809 76.23498344 -0.02070236 C79.51885332 -0.02834017 82.80211294 -0.01667889 86.0859375 0 C87.53484123 -0.00910904 87.53484123 -0.00910904 89.01301575 -0.0184021 C95.37414769 0.04130481 100.36221847 0.79182555 105.48266602 4.88818359 C108.22638926 8.54648125 108.18641928 13.02273042 107.60766602 17.38818359 C105.47822824 21.90259168 103.33662868 23.93470482 98.71589851 25.78993797 C94.62449233 26.95094172 90.49309557 26.79458023 86.26953125 26.76049805 C85.25402191 26.76414871 84.23851257 26.76779938 83.19223022 26.77156067 C79.85006766 26.77963783 76.5083942 26.76608018 73.16625977 26.75146484 C70.83651225 26.75094594 68.50676429 26.75146482 66.17701721 26.75297546 C61.3007247 26.75288587 56.42459796 26.74248157 51.54833984 26.72436523 C45.30171229 26.70166614 39.05532655 26.70113771 32.80866909 26.70788288 C28.00024775 26.71122594 23.19188143 26.70458657 18.38347054 26.69475365 C16.08020376 26.69090815 13.77693086 26.68975073 11.47366142 26.69133949 C8.25445793 26.69171081 5.03556329 26.67907142 1.81640625 26.6628418 C0.86714767 26.66531921 -0.0821109 26.66779663 -1.06013489 26.67034912 C-7.41386057 26.61928968 -12.26903616 26.27555943 -17.20483398 21.88818359 C-20.2922858 18.35966723 -20.74686552 16.21144782 -20.66967773 11.48583984 C-20.20603697 7.97914845 -18.69950153 5.99892582 -16.39233398 3.38818359 C-11.02336262 -0.14335371 -6.20297797 -0.03891563 0 0 Z " fill="#FEE926" transform="translate(240.392333984375,473.61181640625)"/>
<path d="M0 0 C0.33 0 0.66 0 1 0 C1 9.9 1 19.8 1 30 C-8.28400104 30.06785024 -17.56783666 30.12285897 -26.8520298 30.15543652 C-31.16332863 30.17107424 -35.47444862 30.19227776 -39.78564453 30.22631836 C-43.94832485 30.25897959 -48.11083345 30.27686726 -52.27363205 30.28463173 C-53.85961992 30.29016312 -55.44559869 30.30096466 -57.03151321 30.31719017 C-59.25770427 30.33905491 -61.48319103 30.34196323 -63.70947266 30.34057617 C-64.97522125 30.34723801 -66.24096985 30.35389984 -67.54507446 30.36076355 C-72.45915118 29.84763534 -75.7201404 28.14513753 -79.375 24.875 C-81.64942776 20.85101243 -81.7894096 17.5211641 -81 13 C-78.73607919 8.47215838 -76.47075475 6.26023311 -72 4 C-69.15864563 3.49171448 -69.15864563 3.49171448 -66.05981445 3.31860352 C-64.91267975 3.25432159 -63.76554504 3.19003967 -62.58364868 3.12380981 C-56.7344617 2.92172897 -50.89525419 2.8772058 -45.04296875 2.90234375 C-43.77399246 2.9037587 -42.50501617 2.90517365 -41.19758606 2.90663147 C-37.87194787 2.91123493 -34.54638244 2.92017194 -31.22076416 2.93133545 C-27.80798969 2.94168247 -24.39520761 2.94615715 -20.98242188 2.95117188 C-14.32159503 2.96212333 -7.6608017 2.9788021 -1 3 C-0.67 2.01 -0.34 1.02 0 0 Z " fill="#FEEB27" transform="translate(371,546)"/>
<path d="M0 0 C6.08491497 3.47290163 10.03929654 8.26921201 12.0625 15 C13.44936888 22.32038005 11.76865495 28.85049934 7.625 35 C1.88618108 40.73881892 -3.34051662 43.13667044 -11.3125 43.4375 C-18.043054 43.2276947 -22.41328688 41.75644587 -27.34765625 37.1640625 C-32.99198394 31.11408498 -34.8942738 25.77713819 -34.68359375 17.5234375 C-33.96949883 11.6841297 -31.31585349 7.58229461 -27 3.6875 C-18.67949717 -2.74118324 -9.87725699 -4.41641702 0 0 Z " fill="#16AB8A" transform="translate(739.375,669)"/>
<path d="M0 0 C0.33 0 0.66 0 1 0 C1.01030746 1.31243179 1.02061493 2.62486359 1.03123474 3.97706604 C1.12903116 16.35120961 1.23177112 28.72530359 1.33933926 41.09936619 C1.39448119 47.46083948 1.44788714 53.82231743 1.49731445 60.18383789 C1.54508687 66.32412066 1.59743413 72.46434902 1.65294075 78.60456657 C1.67330602 80.94607117 1.69202854 83.28759066 1.70907402 85.62912178 C1.7332473 88.91108701 1.76328388 92.19295051 1.79467773 95.47485352 C1.8004332 96.44086487 1.80618866 97.40687622 1.81211853 98.40216064 C1.36474918 106.71334322 1.36474918 106.71334322 4 114 C4.08685603 115.56172745 4.10702219 117.12729344 4.09765625 118.69140625 C4.09282227 120.10776367 4.09282227 120.10776367 4.08789062 121.55273438 C4.07951172 122.54595703 4.07113281 123.53917969 4.0625 124.5625 C4.05798828 125.55958984 4.05347656 126.55667969 4.04882812 127.58398438 C4.03700007 130.05604849 4.02051849 132.52799518 4 135 C3.34 135 2.68 135 2 135 C1.67 156.45 1.34 177.9 1 200 C1.66 200.33 2.32 200.66 3 201 C2.814375 202.03125 2.62875 203.0625 2.4375 204.125 C2.02529385 207.77596874 2.33574817 210.42964643 3 214 C2.505 214.99 2.505 214.99 2 216 C1.90026395 217.478388 1.86169139 218.96113901 1.85473633 220.44287109 C1.84835648 221.36498383 1.84197662 222.28709656 1.83540344 223.2371521 C1.83429062 224.23912628 1.8331778 225.24110046 1.83203125 226.2734375 C1.82870285 227.30755768 1.82537445 228.34167786 1.82194519 229.40713501 C1.81687203 231.60458938 1.81453698 233.80205149 1.81469727 235.99951172 C1.81253149 239.32663156 1.79443774 242.65340855 1.77539062 245.98046875 C1.77245246 248.11979054 1.7704705 250.2591139 1.76953125 252.3984375 C1.76234573 253.38016937 1.75516022 254.36190125 1.74775696 255.37338257 C1.78340439 266.42268718 2.88218629 274.99975717 9.1875 284.1875 C11 287 11 287 11 289 C11.66 289.33 12.32 289.66 13 290 C13.43828125 290.45117188 13.8765625 290.90234375 14.328125 291.3671875 C19.47722091 296.39597743 25.81903634 299.68778419 33 300 C33 300.33 33 300.66 33 301 C45.01080088 301.87916898 56.84090011 301.99543371 68.875 301.5 C87.60328173 300.74253895 106.27568432 301.3438157 125 302 C124.52949219 301.05898438 124.05898438 300.11796875 123.57421875 299.1484375 C122.3828125 296.765625 121.19140625 294.3828125 120 292 C119.34 292 118.68 292 118 292 C115.525 285.565 115.525 285.565 113 279 C113.66 278.34 114.32 277.68 115 277 C115.21914063 277.61746094 115.43828125 278.23492188 115.6640625 278.87109375 C119.50606891 289.13206209 124.52048376 296.10561855 133 303 C133.66 303.66 134.32 304.32 135 305 C133.02 305.33 131.04 305.66 129 306 C129 305.34 129 304.68 129 304 C128.15375061 304.1071936 128.15375061 304.1071936 127.29040527 304.21655273 C119.97910932 305.05390546 112.75881957 305.1128919 105.40625 305.0625 C104.13777222 305.05871338 102.86929443 305.05492676 101.56237793 305.05102539 C97.54154851 305.03888124 93.52079334 305.02041743 89.5 305 C84.17708853 304.97317558 78.85420806 304.95348639 73.53125 304.9375 C72.30426392 304.92920166 71.07727783 304.92090332 69.81311035 304.91235352 C68.68433472 304.90905029 67.55555908 304.90574707 66.39257812 304.90234375 C65.39681763 304.89710693 64.40105713 304.89187012 63.37512207 304.88647461 C60.9822135 304.84055958 60.9822135 304.84055958 59 306 C59 305.34 59 304.68 59 304 C58.030625 304.165 57.06125 304.33 56.0625 304.5 C41.11185442 306.55088379 26.36163646 304.2321551 13.87890625 295.51953125 C6.94851449 289.96031377 3.35558658 283.07643633 0 275 C-0.33 274.34 -0.66 273.68 -1 273 C-1.16288533 270.63185723 -1.26820312 268.28949689 -1.32958984 265.91821289 C-1.36240995 264.82469293 -1.36240995 264.82469293 -1.3958931 263.70908165 C-1.46577955 261.27623497 -1.52679192 258.84328677 -1.5859375 256.41015625 C-1.60751293 255.56304644 -1.62908836 254.71593662 -1.6513176 253.84315681 C-2.09651959 235.8885929 -1.96716351 217.95759227 -1.70504761 200.00152588 C-1.57481009 191.07591611 -1.46943938 182.14998947 -1.36314964 173.22406769 C-1.33704876 171.03371149 -1.31071074 168.8433581 -1.28414345 166.65300751 C-0.8931175 134.26071678 -0.69027272 101.86676009 -0.47045135 69.47294998 C-0.43747901 64.61525526 -0.40410916 59.75756333 -0.3706665 54.89987183 C-0.24476902 36.59992995 -0.12100161 18.29997497 0 0 Z " fill="#2AA47B" transform="translate(372,436)"/>
<path d="M0 0 C3.86544091 2.15413891 5.9521908 4.26681718 7.8125 8.375 C8.62170454 13.07007219 8.29358534 16.39432604 6.1875 20.6875 C2.85719846 24.45599911 0.31927127 27.04690788 -4.84375 27.72265625 C-10.00327288 27.88215763 -14.14890481 27.9240685 -18.1875 24.375 C-21.22496358 20.91566648 -23.08118068 18.7571512 -23.4375 14.125 C-23.12600066 9.4525099 -22.09713534 6.31072326 -18.7578125 2.92578125 C-12.95638492 -2.1107815 -7.08252064 -3.18449156 0 0 Z " fill="#FEE925" transform="translate(260.1875,549.625)"/>
<path d="M0 0 C0.33 0 0.66 0 1 0 C1.00146656 1.24167246 1.00293312 2.48334492 1.00444412 3.76264381 C1.04014412 33.23573778 1.09638236 62.70871832 1.17792095 92.18171743 C1.18793844 95.80913283 1.19778256 99.43654868 1.20751953 103.06396484 C1.2094609 103.78611976 1.21140228 104.50827467 1.21340248 105.25231306 C1.24442577 116.94620144 1.26140404 128.64007019 1.27319422 140.33399196 C1.28560409 152.33254862 1.31310173 164.33100226 1.35461307 176.32949388 C1.37749708 183.06909487 1.39340059 189.80856274 1.39188385 196.54820633 C1.39114003 202.88967578 1.4089793 209.23081941 1.44116783 215.57220459 C1.44969763 217.9014271 1.451396 220.23068603 1.44580269 222.55991745 C1.43918788 225.73740046 1.4570241 228.91383921 1.48101807 232.09121704 C1.47325765 233.01534948 1.46549723 233.93948192 1.45750165 234.89161837 C1.53130819 240.40363314 2.25524167 243.66769662 6 248 C11.89530425 251.57717641 17.63619436 251.46997331 24.40234375 251.51171875 C25.48004532 251.52966995 26.55774689 251.54762115 27.66810608 251.56611633 C31.09119826 251.62005446 34.5141523 251.65406276 37.9375 251.6875 C40.26629519 251.72068756 42.5950722 251.75517854 44.92382812 251.79101562 C50.61576151 251.87577144 56.30771313 251.94419092 62 252 C62.39233732 256.12354535 62.76092975 260.24887052 63.125 264.375 C63.23714844 265.550625 63.34929687 266.72625 63.46484375 267.9375 C63.56152344 269.05898438 63.65820312 270.18046875 63.7578125 271.3359375 C63.8520752 272.37282715 63.94633789 273.4097168 64.04345703 274.47802734 C64 277 64 277 62 279 C59.78537311 270.59628191 59.79294082 262.6274658 60 254 C58.97648437 254.0721875 57.95296875 254.144375 56.8984375 254.21875 C41.60190711 255.20071058 26.31963521 255.09913154 11 255 C11 254.34 11 253.68 11 253 C9.6078125 252.8453125 9.6078125 252.8453125 8.1875 252.6875 C4.97085535 251.9937139 3.83984081 251.65754784 2 249 C2 248.01 2 247.02 2 246 C1.01 245.67 0.02 245.34 -1 245 C-1.94877136 239.4309262 -2.12855669 234.07811653 -2.08901978 228.43566895 C-2.08649621 227.49132634 -2.08397265 226.54698373 -2.08137262 225.57402468 C-2.07167527 222.41975408 -2.05463745 219.26556696 -2.03759766 216.11132812 C-2.02908753 213.84582168 -2.02101652 211.58031354 -2.01335144 209.31480408 C-1.99117953 203.16822356 -1.96250258 197.02168921 -1.93239641 190.87514305 C-1.90171064 184.44155541 -1.87610171 178.0079472 -1.84970093 171.57434082 C-1.80163445 160.07844812 -1.74841832 148.58258687 -1.69314377 137.08672696 C-1.64320046 126.67030246 -1.59848131 116.25386629 -1.55761719 105.83740234 C-1.50505566 92.44011644 -1.44751917 79.04286296 -1.38599777 65.64561462 C-1.36263677 60.53255291 -1.34126007 55.41948857 -1.32149124 50.30641174 C-1.29799047 44.28505913 -1.2697305 38.26374719 -1.23780251 32.24243355 C-1.22685897 30.032947 -1.21756373 27.82345157 -1.21003914 25.61395073 C-1.19949537 22.59736875 -1.18297487 19.58087627 -1.16494751 16.56433105 C-1.16328728 15.69068673 -1.16162706 14.8170424 -1.15991652 13.916924 C-1.12445927 9.17687771 -0.78893874 4.6757693 0 0 Z " fill="#29B07D" transform="translate(422,434)"/>
<path d="M0 0 C1.56640625 1.16796875 1.56640625 1.16796875 2.56640625 4.16796875 C2.89640625 4.82796875 3.22640625 5.48796875 3.56640625 6.16796875 C3.66252377 7.79065866 3.69622977 9.41744181 3.69140625 11.04296875 C3.69527344 12.33847656 3.69527344 12.33847656 3.69921875 13.66015625 C3.46861756 18.01444929 3.46861756 18.01444929 2.56640625 20.16796875 C-1.5621657 23.29860128 -6.42122213 25.67833016 -11.68359375 25.23046875 C-17.26343005 23.64951513 -20.3206654 21.9416983 -23.43359375 16.98046875 C-24.70648972 12.12755285 -24.21902456 8.81008886 -22.43359375 4.16796875 C-16.76200332 -4.71752292 -8.68531188 -4.43613777 0 0 Z " fill="#FDE827" transform="translate(197.43359375,475.83203125)"/>
<path d="M0 0 C3.6345846 2.82689913 5.07127863 4.39682391 5.6875 9.0625 C5.13734692 13.69950452 3.88380979 15.91216288 1.25 19.75 C-2.77181615 22.43121076 -6.02236391 22.56344335 -10.75 21.75 C-13.8217718 20.03922026 -16.15485654 17.94028693 -17.75 14.75 C-18.27999351 10.96433208 -18.58021253 7.30143964 -16.73828125 3.859375 C-12.30232284 -1.62895793 -6.49467625 -2.95212557 0 0 Z " fill="#38CD87" transform="translate(263.75,403.25)"/>
<path d="M0 0 C1.86897512 3.37015995 2.25359993 6.2221562 2.6640625 10.05078125 C3.14708446 12.85343195 4.36361586 14.69694084 6 17 C10 22.82857143 10 22.82857143 10 25 C10.66 25.33 11.32 25.66 12 26 C12.43828125 26.45117188 12.8765625 26.90234375 13.328125 27.3671875 C18.47722091 32.39597743 24.81903634 35.68778419 32 36 C32 36.33 32 36.66 32 37 C44.01080088 37.87916898 55.84090011 37.99543371 67.875 37.5 C86.60328173 36.74253895 105.27568432 37.3438157 124 38 C123.52949219 37.05898438 123.05898438 36.11796875 122.57421875 35.1484375 C120.78710938 31.57421875 120.78710938 31.57421875 119 28 C118.34 28 117.68 28 117 28 C115.35 23.71 113.7 19.42 112 15 C112.66 14.34 113.32 13.68 114 13 C114.21914063 13.61746094 114.43828125 14.23492188 114.6640625 14.87109375 C118.50606891 25.13206209 123.52048376 32.10561855 132 39 C132.66 39.66 133.32 40.32 134 41 C131.03 41.495 131.03 41.495 128 42 C128 41.34 128 40.68 128 40 C127.43583374 40.0714624 126.87166748 40.1429248 126.29040527 40.21655273 C118.97910932 41.05390546 111.75881957 41.1128919 104.40625 41.0625 C103.13777222 41.05871338 101.86929443 41.05492676 100.56237793 41.05102539 C96.54154851 41.03888124 92.52079334 41.02041743 88.5 41 C83.17708853 40.97317558 77.85420806 40.95348639 72.53125 40.9375 C71.30426392 40.92920166 70.07727783 40.92090332 68.81311035 40.91235352 C67.68433472 40.90905029 66.55555908 40.90574707 65.39257812 40.90234375 C63.89893738 40.89448853 63.89893738 40.89448853 62.37512207 40.88647461 C59.9822135 40.84055958 59.9822135 40.84055958 58 42 C58 41.34 58 40.68 58 40 C56.5459375 40.2475 56.5459375 40.2475 55.0625 40.5 C40.11185442 42.55088379 25.36163646 40.2321551 12.87890625 31.51953125 C5.94851449 25.96031377 2.35558658 19.07643633 -1 11 C-1.33 10.34 -1.66 9.68 -2 9 C-1.66015625 6.8359375 -1.66015625 6.8359375 -1.0625 4.375 C-0.86785156 3.55773437 -0.67320312 2.74046875 -0.47265625 1.8984375 C-0.23869141 0.95871094 -0.23869141 0.95871094 0 0 Z " fill="#139578" transform="translate(373,700)"/>
<path d="M0 0 C0.33 0 0.66 0 1 0 C1 31.68 1 63.36 1 96 C0.34 96 -0.32 96 -1 96 C-1.33 71.58 -1.66 47.16 -2 22 C-34.34 22 -66.68 22 -100 22 C-100 21.67 -100 21.34 -100 21 C-92.08 20.67 -84.16 20.34 -76 20 C-76 19.67 -76 19.34 -76 19 C-50.92 19 -25.84 19 0 19 C0 12.73 0 6.46 0 0 Z " fill="#DFD227" transform="translate(780,608)"/>
<path d="M0 0 C0.33 0 0.66 0 1 0 C1.01030746 1.31243179 1.02061493 2.62486359 1.03123474 3.97706604 C1.12903116 16.35120961 1.23177112 28.72530359 1.33933926 41.09936619 C1.39448119 47.46083948 1.44788714 53.82231743 1.49731445 60.18383789 C1.54508687 66.32412066 1.59743413 72.46434902 1.65294075 78.60456657 C1.67330602 80.94607117 1.69202854 83.28759066 1.70907402 85.62912178 C1.7332473 88.91108701 1.76328388 92.19295051 1.79467773 95.47485352 C1.8004332 96.44086487 1.80618866 97.40687622 1.81211853 98.40216064 C1.36474918 106.71334322 1.36474918 106.71334322 4 114 C4.08685603 115.56172745 4.10702219 117.12729344 4.09765625 118.69140625 C4.09282227 120.10776367 4.09282227 120.10776367 4.08789062 121.55273438 C4.07951172 122.54595703 4.07113281 123.53917969 4.0625 124.5625 C4.05798828 125.55958984 4.05347656 126.55667969 4.04882812 127.58398438 C4.03700007 130.05604849 4.02051849 132.52799518 4 135 C3.34 135 2.68 135 2 135 C2 136.98 2 138.96 2 141 C1.34 140.67 0.68 140.34 0 140 C0 93.8 0 47.6 0 0 Z " fill="#04A36C" transform="translate(372,436)"/>
<path d="M0 0 C2 3 2 3 3.04296875 4.9375 C3.42066406 5.618125 3.79835938 6.29875 4.1875 7 C4.55230469 7.680625 4.91710937 8.36125 5.29296875 9.0625 C8.30798762 12.48458092 12.09073972 13.77325765 16.52113342 14.29940796 C19.48426429 14.44156202 22.43586273 14.49341631 25.40234375 14.51171875 C27.0188961 14.53864555 27.0188961 14.53864555 28.66810608 14.56611633 C32.09119826 14.62005446 35.5141523 14.65406276 38.9375 14.6875 C41.26629519 14.72068756 43.5950722 14.75517854 45.92382812 14.79101562 C51.61576151 14.87577144 57.30771313 14.94419092 63 15 C63.39233732 19.12354535 63.76092975 23.24887052 64.125 27.375 C64.29322266 29.1384375 64.29322266 29.1384375 64.46484375 30.9375 C64.56152344 32.05898438 64.65820312 33.18046875 64.7578125 34.3359375 C64.8520752 35.37282715 64.94633789 36.4097168 65.04345703 37.47802734 C65 40 65 40 63 42 C60.78537311 33.59628191 60.79294082 25.6274658 61 17 C59.97648437 17.0721875 58.95296875 17.144375 57.8984375 17.21875 C42.60190711 18.20071058 27.31963521 18.09913154 12 18 C12 17.34 12 16.68 12 16 C11.071875 15.896875 10.14375 15.79375 9.1875 15.6875 C5.97085535 14.9937139 4.83984081 14.65754784 3 12 C3 11.01 3 10.02 3 9 C2.01 8.67 1.02 8.34 0 8 C-0.38063221 5.6739143 -0.71269945 3.33944736 -1 1 C-0.67 0.67 -0.34 0.34 0 0 Z " fill="#099377" transform="translate(421,671)"/>
<path d="M0 0 C0.33 0 0.66 0 1 0 C2.15773384 27.99806864 2.1099905 55.98235206 2 84 C1.09072754 84.39396973 1.09072754 84.39396973 0.16308594 84.79589844 C-0.63838867 85.1468457 -1.43986328 85.49779297 -2.265625 85.859375 C-3.05743164 86.20452148 -3.84923828 86.54966797 -4.66503906 86.90527344 C-11.00975763 89.87994074 -14.61311231 93.25151454 -17.95703125 99.42578125 C-18.30121094 99.94527344 -18.64539063 100.46476562 -19 101 C-19.66 101 -20.32 101 -21 101 C-19.82869775 95.07768525 -16.30425631 90.72002754 -11.51953125 87.1484375 C-4.86433649 83 -4.86433649 83 0 83 C0 55.61 0 28.22 0 0 Z " fill="#FDE415" transform="translate(574,347)"/>
<path d="M0 0 C0.33 0 0.66 0 1 0 C1.30266071 5.8203983 0.27775379 10.5776209 -1.4375 16.125 C-1.83412842 17.41966187 -1.83412842 17.41966187 -2.23876953 18.74047852 C-6.82950786 33.21865981 -12.53043598 48.91666491 -22 61 C-25 62 -25 62 -28.1875 60.5625 C-29.115625 60.046875 -30.04375 59.53125 -31 59 C-30.67 58.34 -30.34 57.68 -30 57 C-29.13375 57.2784375 -29.13375 57.2784375 -28.25 57.5625 C-25.67069236 58.06403204 -24.38743059 58.11413428 -22 57 C-20.73854232 54.63813861 -20.73854232 54.63813861 -20 52 C-19.67 51.01 -19.34 50.02 -19 49 C-18.34 49 -17.68 49 -17 49 C-16.67 47.35 -16.34 45.7 -16 44 C-15.34 44 -14.68 44 -14 44 C-13.87753906 43.31550781 -13.75507812 42.63101563 -13.62890625 41.92578125 C-12.91575403 38.60807311 -11.95146135 35.42563463 -10.9375 32.1875 C-10.57527344 31.02605469 -10.21304688 29.86460937 -9.83984375 28.66796875 C-9.56269531 27.78753906 -9.28554688 26.90710938 -9 26 C-8.34 26 -7.68 26 -7 26 C-6.9175 24.88625 -6.835 23.7725 -6.75 22.625 C-6.21592917 18.18749973 -4.66447682 14.49194397 -2.91796875 10.40625 C-1.71464706 7.25201102 -1.35575612 4.34410756 -1 1 C-0.67 0.67 -0.34 0.34 0 0 Z " fill="#21B27E" transform="translate(784,495)"/>
<path d="M0 0 C0.2165625 0.8971875 0.2165625 0.8971875 0.4375 1.8125 C0.8872439 3.56150404 1.42892341 5.28677023 2 7 C-21.76 7 -45.52 7 -70 7 C-70.33 6.34 -70.66 5.68 -71 5 C-47.9 5 -24.8 5 -1 5 C-0.67 3.35 -0.34 1.7 0 0 Z " fill="#FEE210" transform="translate(369,568)"/>
<path d="M0 0 C15.23716498 8.42836675 27.88894285 20.625659 40 33 C39.34 33.99 38.68 34.98 38 36 C32.83700907 32.1608529 29.16000117 27.61640081 25.24609375 22.5234375 C22.99909411 19.99898225 20.89405214 18.67844852 18 17 C18 16.34 18 15.68 18 15 C17.4225 14.87625 16.845 14.7525 16.25 14.625 C11.2096606 13.22490572 8.67847124 10.67847124 5 7 C4.0925 6.46375 3.185 5.9275 2.25 5.375 C0 4 0 4 -1 1 C-0.67 0.67 -0.34 0.34 0 0 Z " fill="#49D379" transform="translate(696,265)"/>
<path d="M0 0 C1.15691273 2.31382545 2.3080861 4.62949483 3.4453125 6.953125 C6.77049548 13.47976322 10.04302451 18.68402214 15.49609375 23.609375 C16.24052734 24.29773438 16.24052734 24.29773438 17 25 C17 25.33 17 25.66 17 26 C-8.41 26 -33.82 26 -60 26 C-60 25.67 -60 25.34 -60 25 C-36.28071629 23.89857806 -12.72483795 24.16857489 11 25 C10.52949219 24.05898438 10.05898438 23.11796875 9.57421875 22.1484375 C7.78710938 18.57421875 7.78710938 18.57421875 6 15 C5.34 15 4.68 15 4 15 C3.13656176 12.87875034 2.28449352 10.75286928 1.4375 8.625 C0.96183594 7.44164062 0.48617187 6.25828125 -0.00390625 5.0390625 C-1 2 -1 2 0 0 Z " fill="#09A484" transform="translate(486,713)"/>
<path d="M0 0 C0.71070648 -0.00095673 1.42141296 -0.00191345 2.15365601 -0.00289917 C3.64443043 -0.00357504 5.13520791 -0.0017625 6.62597656 0.00244141 C8.89915589 0.0078142 11.1721391 0.00246805 13.4453125 -0.00390625 C14.9010421 -0.00324567 16.35677158 -0.00196494 17.8125 0 C19.12428223 0.00112793 20.43606445 0.00225586 21.78759766 0.00341797 C24.77923211 0.11446757 27.3657432 0.49286928 30.2734375 1.1328125 C31.8191185 1.27009392 33.36795971 1.3754088 34.91796875 1.44921875 C36.17963867 1.51206055 36.17963867 1.51206055 37.46679688 1.57617188 C38.33111328 1.61548828 39.19542969 1.65480469 40.0859375 1.6953125 C40.96958984 1.73849609 41.85324219 1.78167969 42.76367188 1.82617188 C44.93343373 1.93172786 47.1034166 2.03272321 49.2734375 2.1328125 C49.2734375 2.4628125 49.2734375 2.7928125 49.2734375 3.1328125 C27.8234375 3.4628125 6.3734375 3.7928125 -15.7265625 4.1328125 C-15.3965625 3.1428125 -15.0665625 2.1528125 -14.7265625 1.1328125 C-9.76653779 0.32447055 -5.04130828 0.0043273 0 0 Z " fill="#FDE516" transform="translate(313.7265625,548.8671875)"/>
<path d="M0 0 C2.85369229 4.28053844 3.12869891 8.02207754 3.09765625 13.08203125 C3.09282227 14.47905273 3.09282227 14.47905273 3.08789062 15.90429688 C3.07951172 16.86400391 3.07113281 17.82371094 3.0625 18.8125 C3.05798828 19.79154297 3.05347656 20.77058594 3.04882812 21.77929688 C3.03708684 24.18626111 3.02066419 26.59309857 3 29 C2.34 29 1.68 29 1 29 C1 30.98 1 32.96 1 35 C0.34 34.67 -0.32 34.34 -1 34 C-1.02926019 29.83334831 -1.04688594 25.66672341 -1.0625 21.5 C-1.07087891 20.32695313 -1.07925781 19.15390625 -1.08789062 17.9453125 C-1.10497844 11.86205118 -0.94502752 6.01245856 0 0 Z " fill="#13AF8B" transform="translate(373,542)"/>
<path d="M0 0 C0.66 0.33 1.32 0.66 2 1 C1.45859375 1.83144531 1.45859375 1.83144531 0.90625 2.6796875 C0.4421875 3.40414062 -0.021875 4.12859375 -0.5 4.875 C-0.9640625 5.59429688 -1.428125 6.31359375 -1.90625 7.0546875 C-3.16336501 8.91860466 -3.16336501 8.91860466 -3 11 C-4.33333333 12.33333333 -5.66666667 13.66666667 -7 15 C-7 15.66 -7 16.32 -7 17 C11.315 17.495 11.315 17.495 30 18 C30 18.33 30 18.66 30 19 C25.0197592 19.16873741 20.03934259 19.32916744 15.05859375 19.48217773 C13.36711577 19.53527852 11.67570526 19.59057914 9.984375 19.64819336 C7.54181466 19.73100422 5.09911446 19.8056859 2.65625 19.87890625 C1.53700134 19.91945885 1.53700134 19.91945885 0.3951416 19.96083069 C-4.51533549 20.09786231 -9.13799361 19.71344659 -14 19 C-12.71011299 16.20118857 -11.31211319 14.03384579 -9.25 11.75 C-5.94149658 7.9933003 -2.95664377 4.03655266 0 0 Z " fill="#16A375" transform="translate(714,533)"/>
<path d="M0 0 C0.33 0 0.66 0 1 0 C0.38955672 7.63054095 -1.79621821 14.70189474 -4 22 C-4.66 22 -5.32 22 -6 22 C-6.15855469 22.70125 -6.31710937 23.4025 -6.48046875 24.125 C-8.00416579 30.32080675 -9.74093426 36.09434342 -14 41 C-14.66 41 -15.32 41 -16 41 C-15.38502877 35.88548931 -13.02251118 31.72795541 -10.75 27.1875 C-7.03059081 19.59075432 -4.18027889 12.05821886 -1.875 3.9296875 C-1 1 -1 1 0 0 Z " fill="#21B57E" transform="translate(733,490)"/>
<path d="M0 0 C0.86786133 -0.00064453 1.73572266 -0.00128906 2.62988281 -0.00195312 C9.29267402 0.05259894 15.67776443 0.70560898 22.1875 2.1875 C22.1875 2.8475 22.1875 3.5075 22.1875 4.1875 C8.9875 4.1875 -4.2125 4.1875 -17.8125 4.1875 C-18.1425 3.1975 -18.4725 2.2075 -18.8125 1.1875 C-12.51075627 0.39582365 -6.34966263 -0.00492795 0 0 Z " fill="#3FC184" transform="translate(729.8125,548.8125)"/>
<path d="M0 0 C15.51 0 31.02 0 47 0 C47.37125 4.08375 47.7425 8.1675 48.125 12.375 C48.24762207 13.66196777 48.37024414 14.94893555 48.49658203 16.27490234 C48.58278809 17.28504395 48.66899414 18.29518555 48.7578125 19.3359375 C48.89920654 20.89127197 48.89920654 20.89127197 49.04345703 22.47802734 C49 25 49 25 47 27 C44.84906292 17.80090302 44.66180988 10.36733087 46 1 C30.82 1 15.64 1 0 1 C0 0.67 0 0.34 0 0 Z " fill="#159276" transform="translate(437,686)"/>
<path d="M0 0 C1.45431287 2.90862573 1.64982495 5.790062 2 9 C1.67 9.33 1.34 9.66 1 10 C0.90043991 12.2898821 0.8703128 14.58295937 0.875 16.875 C0.87242187 18.13054687 0.86984375 19.38609375 0.8671875 20.6796875 C0.84592923 24.00121782 0.84592923 24.00121782 2 27 C1.67 27.33 1.34 27.66 1 28 C0.90035112 29.818122 0.86919505 31.64008784 0.8671875 33.4609375 C0.86589844 34.57210937 0.86460937 35.68328125 0.86328125 36.828125 C0.86714844 37.99859375 0.87101562 39.1690625 0.875 40.375 C0.87113281 41.53773438 0.86726563 42.70046875 0.86328125 43.8984375 C0.86457031 45.0121875 0.86585938 46.1259375 0.8671875 47.2734375 C0.86831543 48.29872559 0.86944336 49.32401367 0.87060547 50.38037109 C0.88776645 53.11169984 0.88776645 53.11169984 2 56 C1.66015625 58.26171875 1.66015625 58.26171875 1.0625 60.6875 C0.86785156 61.49574219 0.67320312 62.30398438 0.47265625 63.13671875 C0.31667969 63.75160156 0.16070312 64.36648438 0 65 C-0.33 65 -0.66 65 -1 65 C-1.02312684 56.67271053 -1.04091683 48.34543437 -1.05181217 40.01812077 C-1.05704026 36.15179882 -1.06413654 32.28549879 -1.07543945 28.41918945 C-1.086271 24.69096599 -1.0922774 20.96276366 -1.09487724 17.23452568 C-1.09673101 15.80910344 -1.10035071 14.38368241 -1.10573006 12.95826912 C-1.11294393 10.96836592 -1.11340808 8.97844166 -1.11352539 6.98852539 C-1.115746 5.85379288 -1.11796661 4.71906036 -1.12025452 3.54994202 C-1 1 -1 1 0 0 Z " fill="#1EC586" transform="translate(374,472)"/>
<path d="M0 0 C-1.48653506 3.46629835 -3.45722351 5.69022036 -6.1328125 8.328125 C-7.34130859 9.52695312 -7.34130859 9.52695312 -8.57421875 10.75 C-9.41597656 11.575 -10.25773437 12.4 -11.125 13.25 C-11.97449219 14.09046875 -12.82398438 14.9309375 -13.69921875 15.796875 C-15.79504923 17.86915683 -17.89540713 19.93662393 -20 22 C-20 19 -20 19 -18 16 C-17.74992187 15.40703125 -17.49984375 14.8140625 -17.2421875 14.203125 C-15.37824485 10.89726445 -12.79266362 8.42406089 -10.125 5.75 C-9.59519531 5.19570313 -9.06539063 4.64140625 -8.51953125 4.0703125 C-4.47929495 0 -4.47929495 0 0 0 Z " fill="#4ED67B" transform="translate(445,287)"/>
<path d="M0 0 C0.66 0.66 1.32 1.32 2 2 C-2.17157701 5.77822732 -6.16985757 9.10191454 -11 12 C-13.0788975 13.85703888 -15.11908017 15.74433354 -17.1328125 17.671875 C-18.05707031 18.32929688 -18.05707031 18.32929688 -19 19 C-19.99 18.67 -20.98 18.34 -22 18 C-20.6339467 14.81082722 -19.2255929 13.11041426 -16.4453125 11.0546875 C-15.39923828 10.27544922 -15.39923828 10.27544922 -14.33203125 9.48046875 C-13.60371094 8.95066406 -12.87539063 8.42085938 -12.125 7.875 C-11.40441406 7.33746094 -10.68382812 6.79992187 -9.94140625 6.24609375 C-6.71397746 3.86267028 -3.63705558 1.71920703 0 0 Z " fill="#4ED57A" transform="translate(468,267)"/>
<path d="M0 0 C6.66880347 1.57298558 12.84716605 4.10588902 19.0625 6.9375 C20.20609985 7.44120117 20.20609985 7.44120117 21.37280273 7.95507812 C22.08637939 8.28830078 22.79995605 8.62152344 23.53515625 8.96484375 C24.178479 9.2599585 24.82180176 9.55507324 25.48461914 9.85913086 C27.47227361 11.35555576 27.63591937 12.5944337 28 15 C22.94441768 13.03813223 18.06724501 10.73235748 13.15625 8.4375 C8.51578811 6.32402231 3.84776802 4.57834307 -1 3 C-0.67 2.01 -0.34 1.02 0 0 Z " fill="#4ED679" transform="translate(653,244)"/>
<path d="M0 0 C1.2509564 3.75286921 1 7.05979136 1 11 C1.33 11.99 1.66 12.98 2 14 C5.72594672 15.24198224 9.12973551 15.52056189 13 15 C16.06873898 13.67838573 16.06873898 13.67838573 18 11 C18.69926312 8.26556811 18.8576733 5.84653402 19 3 C19.33 3 19.66 3 20 3 C20.78734859 11.03095559 20.78734859 11.03095559 17.5625 15 C16.716875 15.66 15.87125 16.32 15 17 C14.67 17.33 14.34 17.66 14 18 C10.21896039 18.55720584 6.52021759 18.84003776 3.10546875 16.953125 C0.95886179 15.17734309 -0.74705635 13.5058873 -2 11 C-2.12005453 9.50350638 -2.17531451 8.00125207 -2.1875 6.5 C-2.20167969 5.7059375 -2.21585938 4.911875 -2.23046875 4.09375 C-2 2 -2 2 0 0 Z " fill="#2ABC7C" transform="translate(248,407)"/>
<path d="M0 0 C0.640625 1.79296875 0.640625 1.79296875 1 4 C-2.18272671 10.44051773 -9.71296818 15.09029932 -16 18 C-19.2593859 18.52601041 -21.68479185 18.38043372 -25 18 C-22.53651202 16.35767468 -20.90542501 15.5363358 -18.1875 14.625 C-15.39500704 13.62217104 -13.06135895 12.5065776 -10.625 10.8125 C-8 9 -8 9 -6 9 C-5.7525 8.443125 -5.505 7.88625 -5.25 7.3125 C-3.78393985 4.60028873 -1.97010529 2.36412635 0 0 Z " fill="#FBE41D" transform="translate(772,720)"/>
<path d="M0 0 C0.33 0.66 0.66 1.32 1 2 C0.33613281 2.25394531 -0.32773437 2.50789062 -1.01171875 2.76953125 C-4.84586896 4.26401024 -8.47012401 5.67986659 -12 7.8125 C-12.66 8.204375 -13.32 8.59625 -14 9 C-14.66 8.67 -15.32 8.34 -16 8 C-16 6.02 -16 4.04 -16 2 C-14.27192682 1.66104344 -12.54248026 1.32908475 -10.8125 1 C-9.84957031 0.814375 -8.88664063 0.62875 -7.89453125 0.4375 C-5.2065794 0.03122388 -2.71228981 -0.07933572 0 0 Z " fill="#13333B" transform="translate(541,573)"/>
<path d="M0 0 C1 3 1 3 0 6 C-0.58151691 12.29603881 -0.51165697 18.55909939 3 24 C5.8188033 26.90876511 8.82085217 29.49400507 12 32 C11.67 32.66 11.34 33.32 11 34 C3.53462498 28.89547007 -0.16208612 24.51374163 -3 16 C-3.61767656 9.87074793 -2.79102638 5.46575999 0 0 Z " fill="#F6F719" transform="translate(706,678)"/>
<path d="M0 0 C-2.31 0.99 -4.62 1.98 -7 3 C-7 2.34 -7 1.68 -7 1 C-8.98 1 -10.96 1 -13 1 C-13 1.66 -13 2.32 -13 3 C-13.99 3 -14.98 3 -16 3 C-16.33 3.33 -16.66 3.66 -17 4 C-22.71428571 3.28571429 -22.71428571 3.28571429 -24 2 C-24.66 2.66 -25.32 3.32 -26 4 C-28.625 3.625 -28.625 3.625 -31 3 C-31 2.34 -31 1.68 -31 1 C-32.65 1 -34.3 1 -36 1 C-36 0.67 -36 0.34 -36 0 C-31.19470128 -0.16746774 -26.38924097 -0.32804214 -21.58349609 -0.48217773 C-19.94801607 -0.53561099 -18.31259689 -0.5909414 -16.67724609 -0.64819336 C-14.32923506 -0.73006761 -11.9810911 -0.80515983 -9.6328125 -0.87890625 C-8.89942657 -0.90594131 -8.16604065 -0.93297638 -7.41043091 -0.96083069 C-2.22774341 -1.11387171 -2.22774341 -1.11387171 0 0 Z " fill="#708E48" transform="translate(544,740)"/>
<path d="M0 0 C-0.36633896 2.44279298 -0.55929753 3.65769402 -2.55053711 5.2043457 C-3.2028833 5.52491943 -3.85522949 5.84549316 -4.52734375 6.17578125 C-5.23697266 6.52833984 -5.94660156 6.88089844 -6.67773438 7.24414062 C-7.79631836 7.77297852 -7.79631836 7.77297852 -8.9375 8.3125 C-9.67935547 8.68439453 -10.42121094 9.05628906 -11.18554688 9.43945312 C-13.08963791 10.36646753 -15.04261771 11.19156142 -17 12 C-19 11 -19 11 -20 9 C-2 0 -2 0 0 0 Z " fill="#4ED77A" transform="translate(499,251)"/>
<path d="M0 0 C1.49608773 0.01005392 2.99218203 0.01917549 4.48828125 0.02734375 C8.11732626 0.04915692 11.74611985 0.08355259 15.375 0.125 C15.375 0.785 15.375 1.445 15.375 2.125 C14.08867676 2.154729 14.08867676 2.154729 12.77636719 2.18505859 C9.58552358 2.26329521 6.3950526 2.34999343 3.20458984 2.44238281 C1.82544757 2.48059338 0.44620833 2.51546002 -0.93310547 2.546875 C-2.91916967 2.59269624 -4.90491679 2.65166263 -6.890625 2.7109375 C-8.08461914 2.7423584 -9.27861328 2.7737793 -10.50878906 2.80615234 C-13.4812331 3.11028991 -15.08570546 3.65566476 -17.625 5.125 C-19.28240715 5.50168344 -20.94845271 5.84557545 -22.625 6.125 C-22.625 5.465 -22.625 4.805 -22.625 4.125 C-23.945 3.465 -25.265 2.805 -26.625 2.125 C-17.79895275 -0.25961892 -9.05334797 -0.10655728 0 0 Z " fill="#72DC83" transform="translate(586.625,231.875)"/>
<path d="M0 0 C0.33 0 0.66 0 1 0 C1 1.98 1 3.96 1 6 C-12.86 5.505 -12.86 5.505 -27 5 C-27 4.34 -27 3.68 -27 3 C-18.42 3 -9.84 3 -1 3 C-0.67 2.01 -0.34 1.02 0 0 Z " fill="#EBE02A" transform="translate(371,546)"/>
<path d="M0 0 C0.99 0.33 1.98 0.66 3 1 C-1.85926864 6.16297293 -7.40489975 11.2000681 -14 14 C-14.99 14 -15.98 14 -17 14 C-13.09364288 9.84949556 -8.88749573 5.97544196 -4 3 C-3.01 3 -2.02 3 -1 3 C-0.67 2.01 -0.34 1.02 0 0 Z " fill="#48D47B" transform="translate(491,312)"/>
<path d="M0 0 C2.37142035 1.84443805 3.8452124 3.08829718 5.25 5.75 C5.4375 9.5 5.4375 9.5 5.25 12.75 C4.92 12.75 4.59 12.75 4.25 12.75 C4.25 10.77 4.25 8.79 4.25 6.75 C3.59 6.75 2.93 6.75 2.25 6.75 C2.25 6.09 2.25 5.43 2.25 4.75 C1.59 4.75 0.93 4.75 0.25 4.75 C-0.41 3.76 -1.07 2.77 -1.75 1.75 C-7.63489457 1.1959433 -7.63489457 1.1959433 -12.75 3.75 C-13.74 3.42 -14.73 3.09 -15.75 2.75 C-11.4518403 -1.95750824 -5.81005903 -2.64093592 0 0 Z " fill="#32BF81" transform="translate(263.75,403.25)"/>
<path d="M0 0 C0.33 1.32 0.66 2.64 1 4 C1.66 4.33 2.32 4.66 3 5 C2.814375 6.03125 2.62875 7.0625 2.4375 8.125 C2.02529385 11.77596874 2.33574817 14.42964643 3 18 C2.67 18.66 2.34 19.32 2 20 C1.63858045 22.32914823 1.30300475 24.66253478 1 27 C0.67 27 0.34 27 0 27 C0 18.09 0 9.18 0 0 Z " fill="#039875" transform="translate(372,632)"/>
<path d="M0 0 C0.33 0 0.66 0 1 0 C1.39244498 3.79007519 1.76098914 7.58209675 2.125 11.375 C2.23714844 12.45523438 2.34929687 13.53546875 2.46484375 14.6484375 C2.56152344 15.6796875 2.65820312 16.7109375 2.7578125 17.7734375 C2.8520752 18.72653809 2.94633789 19.67963867 3.04345703 20.66162109 C3 23 3 23 1 25 C-1.00594372 16.42100854 -1.78388925 8.69646008 0 0 Z " fill="#0DB690" transform="translate(483,688)"/>
<path d="M0 0 C0.99676758 0.13728516 0.99676758 0.13728516 2.01367188 0.27734375 C5.5981884 0.780807 9.14708834 1.37172092 12.6875 2.125 C12.6875 2.455 12.6875 2.785 12.6875 3.125 C5.32490707 3.34924141 -1.18299629 3.02620099 -8.3125 1.125 C-8.6425 1.785 -8.9725 2.445 -9.3125 3.125 C-9.3125 2.135 -9.3125 1.145 -9.3125 0.125 C-6.24619878 -1.40815061 -3.28151036 -0.48174699 0 0 Z " fill="#FEE317" transform="translate(621.3125,474.875)"/>
<path d="M0 0 C1.65 0 3.3 0 5 0 C5 0.66 5 1.32 5 2 C7.97 2.495 7.97 2.495 11 3 C11 3.99 11 4.98 11 6 C9.5608866 5.71640113 8.12374482 5.42278601 6.6875 5.125 C5.88699219 4.96257812 5.08648438 4.80015625 4.26171875 4.6328125 C2 4 2 4 -1 2 C-0.67 1.34 -0.34 0.68 0 0 Z " fill="#4ED57A" transform="translate(626,288)"/>
<path d="M0 0 C-1.86258232 2.3799663 -2.86443669 2.97052972 -5.875 3.625 C-6.90625 3.74875 -7.9375 3.8725 -9 4 C-10.66804677 4.32635698 -12.33524314 4.65725594 -14 5 C-14 4.01 -14 3.02 -14 2 C-12.42085985 1.46658816 -10.83645613 0.94874237 -9.25 0.4375 C-8.36828125 0.14746094 -7.4865625 -0.14257812 -6.578125 -0.44140625 C-3.92165684 -1.01697435 -2.52968894 -0.89248371 0 0 Z " fill="#52D77B" transform="translate(532,241)"/>
<path d="M0 0 C0.66 0.33 1.32 0.66 2 1 C0.51697598 5.44907205 -3.08285501 7.74579392 -7 10 C-7.66 10 -8.32 10 -9 10 C-7.61811547 6.78956118 -6.07578097 4.95063635 -3.375 2.75 C-2.74335938 2.22921875 -2.11171875 1.7084375 -1.4609375 1.171875 C-0.73777344 0.59179688 -0.73777344 0.59179688 0 0 Z " fill="#204C43" transform="translate(512,581)"/>
<path d="M0 0 C0.33 0.99 0.66 1.98 1 3 C-0.51171875 5.55859375 -0.51171875 5.55859375 -2.6875 8.4375 C-3.39261719 9.38496094 -4.09773438 10.33242188 -4.82421875 11.30859375 C-6.7646845 13.70891853 -8.76998434 15.87066225 -11 18 C-9.51971645 13.81490516 -7.42574276 10.41688407 -4.9375 6.75 C-4.22464844 5.69296875 -3.51179688 4.6359375 -2.77734375 3.546875 C-1 1 -1 1 0 0 Z " fill="#33C676" transform="translate(458,345)"/>
<path d="M0 0 C2 2 2 2 2.22705078 3.97119141 C2.21657715 4.75671387 2.20610352 5.54223633 2.1953125 6.3515625 C2.18886719 7.20234375 2.18242188 8.053125 2.17578125 8.9296875 C2.15902344 9.81914062 2.14226563 10.70859375 2.125 11.625 C2.11597656 12.5221875 2.10695313 13.419375 2.09765625 14.34375 C2.0740497 16.56276586 2.0411231 18.78125077 2 21 C1.34 21 0.68 21 0 21 C-0.87346005 14.33986708 -1.40807542 7.72124218 -1 1 C-0.67 0.67 -0.34 0.34 0 0 Z " fill="#30BF82" transform="translate(790,445)"/>
<path d="M0 0 C5.97897503 -0.74737188 9.32379721 1.6768102 14 5 C13.01 6.485 13.01 6.485 12 8 C11.38125 7.505 10.7625 7.01 10.125 6.5 C8.16119096 4.80777227 8.16119096 4.80777227 6 5 C6 4.34 6 3.68 6 3 C4.02 2.34 2.04 1.68 0 1 C0 0.67 0 0.34 0 0 Z " fill="#50D87A" transform="translate(681,259)"/>
<path d="M0 0 C0.97582031 0.10183594 1.95164062 0.20367187 2.95703125 0.30859375 C3.69308594 0.39238281 4.42914062 0.47617188 5.1875 0.5625 C4.8575 1.2225 4.5275 1.8825 4.1875 2.5625 C1.46484375 2.9765625 1.46484375 2.9765625 -1.875 3.1875 C-2.97972656 3.26226562 -4.08445312 3.33703125 -5.22265625 3.4140625 C-6.07730469 3.46304688 -6.93195312 3.51203125 -7.8125 3.5625 C-7.8125 2.9025 -7.8125 2.2425 -7.8125 1.5625 C-8.8025 1.2325 -9.7925 0.9025 -10.8125 0.5625 C-7.01982808 -0.3735342 -3.87575435 -0.42026252 0 0 Z " fill="#55D87B" transform="translate(556.8125,235.4375)"/>
<path d="M0 0 C3.95680188 4.61626886 6 7.84625334 6 14 C5.01 13.67 4.02 13.34 3 13 C2.05078125 11.07421875 2.05078125 11.07421875 1.3125 8.6875 C0.93544922 7.51767578 0.93544922 7.51767578 0.55078125 6.32421875 C0 4 0 4 0 0 Z " fill="#F3E523" transform="translate(773,590)"/>
<path d="M0 0 C4.39970265 4.0114936 8.42485876 8.58833101 11 14 C10.6640625 16.27734375 10.6640625 16.27734375 10 18 C9.52949219 17.18015625 9.05898438 16.3603125 8.57421875 15.515625 C7.95160156 14.43796875 7.32898438 13.3603125 6.6875 12.25 C6.07261719 11.18265625 5.45773437 10.1153125 4.82421875 9.015625 C3.1106209 6.06026739 3.1106209 6.06026739 1.26953125 3.734375 C0 2 0 2 0 0 Z " fill="#34C475" transform="translate(750,318)"/>
<path d="M0 0 C0.33 0.66 0.66 1.32 1 2 C0.34 2 -0.32 2 -1 2 C-1.66 5.63 -2.32 9.26 -3 13 C-3.66 12.67 -4.32 12.34 -5 12 C-5.30192308 4.15 -5.30192308 4.15 -3 1 C-2.01 0.67 -1.02 0.34 0 0 Z " fill="#FDE418" transform="translate(295,554)"/>
<path d="M0 0 C5.75 0.75 5.75 0.75 8 3 C9.02304948 4.65261839 10.02616054 6.31791365 11 8 C7.24026115 8 6.54322371 7.03457593 3.8125 4.5625 C3.09707031 3.92441406 2.38164063 3.28632813 1.64453125 2.62890625 C1.10183594 2.09136719 0.55914063 1.55382812 0 1 C0 0.67 0 0.34 0 0 Z " fill="#45CF78" transform="translate(680,319)"/>
<path d="M0 0 C0.33 0 0.66 0 1 0 C0.50769231 6.52307692 0.50769231 6.52307692 -2.0625 8.9375 C-2.701875 9.288125 -3.34125 9.63875 -4 10 C-4.66 9.34 -5.32 8.68 -6 8 C-5.02471263 6.66382648 -4.04466681 5.3311249 -3.0625 4 C-2.24458984 2.88625 -2.24458984 2.88625 -1.41015625 1.75 C-0.94480469 1.1725 -0.47945313 0.595 0 0 Z " fill="#48D27B" transform="translate(420,309)"/>
<path d="M0 0 C0.66 0.33 1.32 0.66 2 1 C2 1.66 2 2.32 2 3 C-1.96 4.98 -1.96 4.98 -6 7 C-6.33 6.01 -6.66 5.02 -7 4 C-2.25 1.125 -2.25 1.125 0 0 Z " fill="#4CD67B" transform="translate(507,302)"/>
<path d="M0 0 C0.99 0 1.98 0 3 0 C3 0.66 3 1.32 3 2 C5.31 2.33 7.62 2.66 10 3 C9.67 3.66 9.34 4.32 9 5 C5.37 4.67 1.74 4.34 -2 4 C-1.34 2.68 -0.68 1.36 0 0 Z " fill="#2CA771" transform="translate(702,548)"/>
<path d="M0 0 C0.66 0.33 1.32 0.66 2 1 C0.83242263 4.32310483 -0.14948857 6.83361132 -3 9 C-3.99 9 -4.98 9 -6 9 C-5.52797514 4.75177626 -3.03344482 2.80010291 0 0 Z " fill="#49D57E" transform="translate(462,338)"/>
<path d="M0 0 C2.31 0.66 4.62 1.32 7 2 C7 2.66 7 3.32 7 4 C7.99 4.66 8.98 5.32 10 6 C6.1936543 5.32829194 2.64793184 4.27253436 -1 3 C-0.67 2.01 -0.34 1.02 0 0 Z " fill="#56D97B" transform="translate(653,244)"/>
<path d="M0 0 C3.37177797 1.39521847 5.25017709 2.76282761 7 6 C7.1875 9.75 7.1875 9.75 7 13 C6.67 13 6.34 13 6 13 C6 11.02 6 9.04 6 7 C5.34 7 4.68 7 4 7 C4 6.34 4 5.68 4 5 C3.34 5 2.68 5 2 5 C1.34 3.35 0.68 1.7 0 0 Z " fill="#3FC381" transform="translate(262,403)"/>
<path d="M0 0 C0.33 0.66 0.66 1.32 1 2 C-0.98 2.66 -2.96 3.32 -5 4 C-5 3.34 -5 2.68 -5 2 C-7.64 2 -10.28 2 -13 2 C-13 1.67 -13 1.34 -13 1 C-8.62426048 0.40667939 -4.42471556 -0.13827236 0 0 Z " fill="#4D5B35" transform="translate(541,573)"/>
<path d="M0 0 C0.33 0 0.66 0 1 0 C1.32215416 4.6175429 0.92900057 7.33874929 -2 11 C-4.1875 11.8125 -4.1875 11.8125 -6 12 C-6 10 -6 10 -4.5625 8.5 C-4.046875 8.005 -3.53125 7.51 -3 7 C-2.67 6.34 -2.34 5.68 -2 5 C-1.34 5 -0.68 5 0 5 C0 3.35 0 1.7 0 0 Z " fill="#F1E433" transform="translate(687,473)"/>
<path d="M0 0 C2.27505004 2.16671432 4.23575092 4.39563231 6 7 C6 7.66 6 8.32 6 9 C5.401875 8.690625 4.80375 8.38125 4.1875 8.0625 C1.91043228 6.89790296 1.91043228 6.89790296 -1 6 C-0.67 4.02 -0.34 2.04 0 0 Z " fill="#FBE420" transform="translate(553,472)"/>
<path d="M0 0 C0.598125 0.33 1.19625 0.66 1.8125 1 C4.05386471 2.20787988 4.05386471 2.20787988 7 2 C8.6875 3.5 8.6875 3.5 10 5 C9.67 5.66 9.34 6.32 9 7 C8.401875 6.690625 7.80375 6.38125 7.1875 6.0625 C4.91043228 4.89790296 4.91043228 4.89790296 2 4 C0.8125 1.9375 0.8125 1.9375 0 0 Z " fill="#55DB7C" transform="translate(704,273)"/>
<path d="M0 0 C0.99 0 1.98 0 3 0 C4.26237731 2.52475462 4.09856404 4.31200466 4.0625 7.125 C4.05347656 8.03507813 4.04445313 8.94515625 4.03515625 9.8828125 C4.02355469 10.58148437 4.01195312 11.28015625 4 12 C3.67 12 3.34 12 3 12 C2.67 9.03 2.34 6.06 2 3 C1.34 3 0.68 3 0 3 C0 2.01 0 1.02 0 0 Z " fill="#FDE519" transform="translate(263,554)"/>
<path d="M0 0 C0.99 0.33 1.98 0.66 3 1 C1.35 2.65 -0.3 4.3 -2 6 C-2.99 5.01 -3.98 4.02 -5 3 C-2.6875 1.4375 -2.6875 1.4375 0 0 Z " fill="#50D77B" transform="translate(474,263)"/>
<path d="M0 0 C4.51617599 -0.07654536 8.59085217 -0.10228696 13 1 C10.03312999 2.64826111 7.34373475 3.44271087 4 4 C4 3.34 4 2.68 4 2 C2.68 1.34 1.36 0.68 0 0 Z " fill="#5BDA7C" transform="translate(560,234)"/>
<path d="M0 0 C0.99 0.495 0.99 0.495 2 1 C2 1.66 2 2.32 2 3 C3.175625 3.4640625 3.175625 3.4640625 4.375 3.9375 C7 5 7 5 9 6 C9 6.66 9 7.32 9 8 C2.18181818 6.03030303 2.18181818 6.03030303 0 3 C0 2.01 0 1.02 0 0 Z " fill="#2DBF7B" transform="translate(292,416)"/>
<path d="M0 0 C0.99 0 1.98 0 3 0 C3 1.65 3 3.3 3 5 C3.99 5.33 4.98 5.66 6 6 C5.01 6.495 5.01 6.495 4 7 C3.67 7.66 3.34 8.32 3 9 C1.76078698 6.02588876 0.69941596 3.14737182 0 0 Z " fill="#4DD47C" transform="translate(701,336)"/>
<path d="M0 0 C1.21236328 0.01353516 1.21236328 0.01353516 2.44921875 0.02734375 C3.37154297 0.04474609 3.37154297 0.04474609 4.3125 0.0625 C4.3125 0.3925 4.3125 0.7225 4.3125 1.0625 C2.6625 1.3925 1.0125 1.7225 -0.6875 2.0625 C-0.6875 2.3925 -0.6875 2.7225 -0.6875 3.0625 C-2.6675 3.0625 -4.6475 3.0625 -6.6875 3.0625 C-7.0175 2.4025 -7.3475 1.7425 -7.6875 1.0625 C-4.80538698 0.10179566 -2.98899956 -0.04331883 0 0 Z " fill="#58D97D" transform="translate(607.6875,233.9375)"/>
<path d="M0 0 C3.36016893 1.12005631 4.69064913 2.37211797 7 5 C7 5.66 7 6.32 7 7 C3.75791433 6.64950425 2.38472296 6.43778819 0.1875 3.9375 C-0.4003125 2.9784375 -0.4003125 2.9784375 -1 2 C-0.67 1.34 -0.34 0.68 0 0 Z " fill="#4DD279" transform="translate(666,306)"/>
<path d="M0 0 C0.66 0.33 1.32 0.66 2 1 C1.67 1.99 1.34 2.98 1 4 C-0.98 4.33 -2.96 4.66 -5 5 C-5 4.01 -5 3.02 -5 2 C-2.625 0.9375 -2.625 0.9375 0 0 Z " fill="#4AD67C" transform="translate(534,290)"/>
<path d="M0 0 C0.61875 0.165 1.2375 0.33 1.875 0.5 C4.16786836 1.23577017 4.16786836 1.23577017 7 0 C6.67 0.99 6.34 1.98 6 3 C4.125 3.875 4.125 3.875 2 4 C0.25 2.5625 0.25 2.5625 -1 1 C-0.67 0.67 -0.34 0.34 0 0 Z " fill="#1DB983" transform="translate(754,552)"/>
<path d="M0 0 C2.32947183 2.11770166 3.88750845 4.03335588 5 7 C4.67 7.99 4.34 8.98 4 10 C2.25728062 7.702779 0.60088848 5.40133271 -1 3 C-0.67 2.01 -0.34 1.02 0 0 Z " fill="#49D583" transform="translate(720,364)"/>
<path d="M0 0 C3 0.3125 3 0.3125 6 1 C6.33 1.66 6.66 2.32 7 3 C5.25 3.6875 5.25 3.6875 3 4 C0.75 2.5625 0.75 2.5625 -1 1 C-0.67 0.67 -0.34 0.34 0 0 Z " fill="#4ED679" transform="translate(646,296)"/>
<path d="M0 0 C0 0.33 0 0.66 0 1 C-6.0546875 1.9765625 -6.0546875 1.9765625 -8 2 C-8.66 1.34 -9.32 0.68 -10 0 C-5.91847062 -2.09907226 -4.08152938 -2.09907226 0 0 Z " fill="#50D879" transform="translate(554,288)"/>
<path d="M0 0 C0.66 0 1.32 0 2 0 C0.66666667 2.66666667 -0.66666667 5.33333333 -2 8 C-2.66 8 -3.32 8 -4 8 C-2.25 2.25 -2.25 2.25 0 0 Z " fill="#2EBB7A" transform="translate(294,398)"/>
<path d="M0 0 C1.98 0.99 3.96 1.98 6 3 C5.67 3.99 5.34 4.98 5 6 C2.5625 5.1875 2.5625 5.1875 0 4 C-0.33 3.01 -0.66 2.02 -1 1 C-0.67 0.67 -0.34 0.34 0 0 Z " fill="#50D77A" transform="translate(696,265)"/>
<path d="M0 0 C2.64 0 5.28 0 8 0 C8 0.33 8 0.66 8 1 C5.36 1 2.72 1 0 1 C0 0.67 0 0.34 0 0 Z " fill="#EFE02A" transform="translate(720,742)"/>
<path d="M0 0 C2.31 0 4.62 0 7 0 C7 0.33 7 0.66 7 1 C4.69 1 2.38 1 0 1 C0 0.67 0 0.34 0 0 Z " fill="#EEEB39" transform="translate(301,472)"/>
<path d="M0 0 C2.31 0 4.62 0 7 0 C7 0.33 7 0.66 7 1 C4.69 1 2.38 1 0 1 C0 0.67 0 0.34 0 0 Z " fill="#F0EA39" transform="translate(253,472)"/>
<path d="M0 0 C2.31 0 4.62 0 7 0 C7 0.33 7 0.66 7 1 C4.69 1 2.38 1 0 1 C0 0.67 0 0.34 0 0 Z " fill="#EFE738" transform="translate(242,472)"/>
<path d="M0 0 C1.65 0 3.3 0 5 0 C5 0.33 5 0.66 5 1 C3.35 1 1.7 1 0 1 C0 0.67 0 0.34 0 0 Z " fill="#EEDF2C" transform="translate(585,742)"/>
<path d="M0 0 C1.65 0 3.3 0 5 0 C5 0.33 5 0.66 5 1 C3.35 1 1.7 1 0 1 C0 0.67 0 0.34 0 0 Z " fill="#EADB2D" transform="translate(576,742)"/>
<path d="M0 0 C1.65 0 3.3 0 5 0 C5 0.33 5 0.66 5 1 C3.35 1 1.7 1 0 1 C0 0.67 0 0.34 0 0 Z " fill="#F6E736" transform="translate(579,495)"/>
<path d="M0 0 C1.65 0 3.3 0 5 0 C5 0.33 5 0.66 5 1 C3.35 1 1.7 1 0 1 C0 0.67 0 0.34 0 0 Z " fill="#EEEB39" transform="translate(295,472)"/>
<path d="M0 0 C1.65 0 3.3 0 5 0 C5 0.33 5 0.66 5 1 C3.35 1 1.7 1 0 1 C0 0.67 0 0.34 0 0 Z " fill="#EFEA39" transform="translate(287,472)"/>
<path d="M0 0 C1.65 0 3.3 0 5 0 C5 0.33 5 0.66 5 1 C3.35 1 1.7 1 0 1 C0 0.67 0 0.34 0 0 Z " fill="#EFEA3C" transform="translate(276,472)"/>
<path d="M0 0 C0.33 0 0.66 0 1 0 C1 1.65 1 3.3 1 5 C0.67 5 0.34 5 0 5 C0 3.35 0 1.7 0 0 Z " fill="#53CD83" transform="translate(736,437)"/>
<path d="M0 0 C1.65 0 3.3 0 5 0 C5 0.33 5 0.66 5 1 C3.35 1 1.7 1 0 1 C0 0.67 0 0.34 0 0 Z " fill="#6EDD7E" transform="translate(572,287)"/>
<path d="M0 0 C4 1 4 1 4 1 Z " fill="#F0E129" transform="translate(705,742)"/>
<path d="M0 0 C4 1 4 1 4 1 Z " fill="#F2E229" transform="translate(696,742)"/>
<path d="M0 0 C4 1 4 1 4 1 Z " fill="#397655" transform="translate(504,742)"/>
<path d="M0 0 C4 1 4 1 4 1 Z " fill="#F7E735" transform="translate(587,495)"/>
<path d="M0 0 C4 1 4 1 4 1 Z " fill="#ECEA38" transform="translate(311,472)"/>
<path d="M0 0 C4 1 4 1 4 1 Z " fill="#F0EA39" transform="translate(282,472)"/>
<path d="M0 0 C4 1 4 1 4 1 Z " fill="#F0EA3B" transform="translate(269,472)"/>
<path d="M0 0 C4 1 4 1 4 1 Z " fill="#EFEB39" transform="translate(261,472)"/>
<path d="M0 0 C4 1 4 1 4 1 Z " fill="#EEE537" transform="translate(232,472)"/>
<path d="M0 0 C3 1 3 1 3 1 Z " fill="#EEE02C" transform="translate(730,742)"/>
<path d="M0 0 C0.66 0 1.32 0 2 0 C1.67 0.66 1.34 1.32 1 2 C0.67 1.34 0.34 0.68 0 0 Z " fill="#A5AA39" transform="translate(542,742)"/>
<path d="" fill="#2A6E58" transform="translate(0,0)"/>
<path d="M0 0 C0.33 0.66 0.66 1.32 1 2 C0.34 1.67 -0.32 1.34 -1 1 C-0.67 0.67 -0.34 0.34 0 0 Z " fill="#ECDB31" transform="translate(263,574)"/>
<path d="M0 0 C3 1 3 1 3 1 Z " fill="#79C56D" transform="translate(753,556)"/>
<path d="" fill="#52C983" transform="translate(0,0)"/>
<path d="" fill="#50CD84" transform="translate(0,0)"/>
<path d="" fill="#54CF84" transform="translate(0,0)"/>
<path d="" fill="#48C280" transform="translate(0,0)"/>
<path d="M0 0 C3 1 3 1 3 1 Z " fill="#72E080" transform="translate(595,287)"/>
<path d="M0 0 C3 1 3 1 3 1 Z " fill="#64D377" transform="translate(560,232)"/>
<path d="M0 0 C2 1 2 1 2 1 Z " fill="#EBDC2E" transform="translate(739,742)"/>
<path d="M0 0 C2 1 2 1 2 1 Z " fill="#F2E22A" transform="translate(686,742)"/>
<path d="M0 0 C2 1 2 1 2 1 Z " fill="#F1E02A" transform="translate(651,742)"/>
<path d="M0 0 C2 1 2 1 2 1 Z " fill="#F3E229" transform="translate(643,742)"/>
<path d="M0 0 C2 1 2 1 2 1 Z " fill="#F1E22C" transform="translate(635,742)"/>
<path d="M0 0 C2 1 2 1 2 1 Z " fill="#EEDF2C" transform="translate(595,742)"/>
<path d="M0 0 C2 1 2 1 2 1 Z " fill="#EDDE2D" transform="translate(592,742)"/>
<path d="M0 0 C2 1 2 1 2 1 Z " fill="#E8D92C" transform="translate(571,742)"/>
<path d="M0 0 C2 1 2 1 2 1 Z " fill="#1B9375" transform="translate(464,741)"/>
<path d="" fill="#296C57" transform="translate(0,0)"/>
<path d="" fill="#20A780" transform="translate(0,0)"/>
<path d="" fill="#2A6852" transform="translate(0,0)"/>
<path d="" fill="#B0B43E" transform="translate(0,0)"/>
<path d="" fill="#9AA242" transform="translate(0,0)"/>
<path d="" fill="#969D40" transform="translate(0,0)"/>
<path d="M0 0 C2 1 2 1 2 1 Z " fill="#959C40" transform="translate(782,612)"/>
<path d="" fill="#A1A83C" transform="translate(0,0)"/>
<path d="M0 0 C2 1 2 1 2 1 Z " fill="#627F4A" transform="translate(517,576)"/>
<path d="M0 0 C2 1 2 1 2 1 Z " fill="#E1D337" transform="translate(240,575)"/>
<path d="" fill="#EEDF34" transform="translate(0,0)"/>
<path d="" fill="#44B480" transform="translate(0,0)"/>
<path d="" fill="#4CC482" transform="translate(0,0)"/>
<path d="M0 0 C2 1 2 1 2 1 Z " fill="#F1E537" transform="translate(669,487)"/>
<path d="M0 0 C2 1 2 1 2 1 Z " fill="#F4E836" transform="translate(660,486)"/>
<path d="M0 0 C2 1 2 1 2 1 Z " fill="#F4E839" transform="translate(656,485)"/>
<path d="" fill="#3DBA80" transform="translate(0,0)"/>
<path d="M0 0 C2 1 2 1 2 1 Z " fill="#E9EA3A" transform="translate(320,472)"/>
<path d="M0 0 C2 1 2 1 2 1 Z " fill="#F1EC3B" transform="translate(266,472)"/>
<path d="M0 0 C2 1 2 1 2 1 Z " fill="#F2E838" transform="translate(250,472)"/>
<path d="M0 0 C2 1 2 1 2 1 Z " fill="#EFE638" transform="translate(239,472)"/>
<path d="" fill="#42BC80" transform="translate(0,0)"/>
<path d="M0 0 C2 1 2 1 2 1 Z " fill="#F5E736" transform="translate(638,456)"/>
<path d="" fill="#51CD84" transform="translate(0,0)"/>
<path d="M0 0 C2 1 2 1 2 1 Z " fill="#FAEC37" transform="translate(596,428)"/>
<path d="M0 0 C2 1 2 1 2 1 Z " fill="#F7EA35" transform="translate(568,424)"/>
<path d="M0 0 C2 1 2 1 2 1 Z " fill="#67CF79" transform="translate(291,422)"/>
<path d="" fill="#5DC87E" transform="translate(0,0)"/>
<path d="" fill="#52CE83" transform="translate(0,0)"/>
<path d="" fill="#52D083" transform="translate(0,0)"/>
<path d="M0 0 C2 1 2 1 2 1 Z " fill="#56BB78" transform="translate(254,400)"/>
<path d="M0 0 C2 1 2 1 2 1 Z " fill="#5FCF7E" transform="translate(446,367)"/>
<path d="" fill="#5FCE7B" transform="translate(0,0)"/>
<path d="M0 0 C2 1 2 1 2 1 Z " fill="#71DE7F" transform="translate(633,295)"/>
<path d="M0 0 C2 1 2 1 2 1 Z " fill="#70DD7F" transform="translate(532,295)"/>
<path d="M0 0 C2 1 2 1 2 1 Z " fill="#71E07E" transform="translate(592,287)"/>
<path d="M0 0 C2 1 2 1 2 1 Z " fill="#70DE7D" transform="translate(580,287)"/>
<path d="M0 0 C2 1 2 1 2 1 Z " fill="#72DD7F" transform="translate(568,287)"/>
<path d="M0 0 C2 1 2 1 2 1 Z " fill="#62CE77" transform="translate(469,264)"/>
<path d="M0 0 C2 1 2 1 2 1 Z " fill="#60CE76" transform="translate(684,256)"/>
<path d="M0 0 C2 1 2 1 2 1 Z " fill="#64D37A" transform="translate(497,249)"/>
<path d="M0 0 C2 1 2 1 2 1 Z " fill="#62D076" transform="translate(668,248)"/>
<path d="M0 0 C2 1 2 1 2 1 Z " fill="#63CE76" transform="translate(646,240)"/>
<path d="M0 0 C2 1 2 1 2 1 Z " fill="#64D477" transform="translate(556,233)"/>
<path d="" fill="#28312A" transform="translate(0,0)"/>
<path d="" fill="#7E9340" transform="translate(0,0)"/>
<path d="" fill="#3D7651" transform="translate(0,0)"/>
<path d="" fill="#E9D830" transform="translate(0,0)"/>
<path d="" fill="#EEDF2C" transform="translate(0,0)"/>
<path d="" fill="#F0E028" transform="translate(0,0)"/>
<path d="" fill="#EFE12A" transform="translate(0,0)"/>
<path d="" fill="#F1E22A" transform="translate(0,0)"/>
<path d="" fill="#F2E22B" transform="translate(0,0)"/>
<path d="" fill="#F0E32B" transform="translate(0,0)"/>
<path d="" fill="#F3E32C" transform="translate(0,0)"/>
<path d="" fill="#F2E32B" transform="translate(0,0)"/>
<path d="" fill="#F2E32B" transform="translate(0,0)"/>
<path d="" fill="#F1E22C" transform="translate(0,0)"/>
<path d="" fill="#EFE02B" transform="translate(0,0)"/>
<path d="" fill="#E4D82D" transform="translate(0,0)"/>
<path d="" fill="#D4CB31" transform="translate(0,0)"/>
<path d="" fill="#BDBA38" transform="translate(0,0)"/>
<path d="" fill="#839741" transform="translate(0,0)"/>
<path d="" fill="#82913F" transform="translate(0,0)"/>
<path d="" fill="#407651" transform="translate(0,0)"/>
<path d="" fill="#307C5E" transform="translate(0,0)"/>
<path d="" fill="#258A6D" transform="translate(0,0)"/>
<path d="" fill="#E9DD2F" transform="translate(0,0)"/>
<path d="" fill="#238D70" transform="translate(0,0)"/>
<path d="" fill="#1E9074" transform="translate(0,0)"/>
<path d="" fill="#1E9473" transform="translate(0,0)"/>
<path d="" fill="#1B977A" transform="translate(0,0)"/>
<path d="" fill="#16987C" transform="translate(0,0)"/>
<path d="" fill="#16967E" transform="translate(0,0)"/>
<path d="" fill="#E8DA30" transform="translate(0,0)"/>
<path d="" fill="#17947A" transform="translate(0,0)"/>
<path d="" fill="#1A957D" transform="translate(0,0)"/>
<path d="" fill="#E7D630" transform="translate(0,0)"/>
<path d="" fill="#179377" transform="translate(0,0)"/>
<path d="" fill="#1A987C" transform="translate(0,0)"/>
<path d="" fill="#18987E" transform="translate(0,0)"/>
<path d="" fill="#EBDC2D" transform="translate(0,0)"/>
<path d="" fill="#1C9E7D" transform="translate(0,0)"/>
<path d="" fill="#1DA17E" transform="translate(0,0)"/>
<path d="" fill="#ECDD2D" transform="translate(0,0)"/>
<path d="" fill="#237E63" transform="translate(0,0)"/>
<path d="" fill="#1CA07E" transform="translate(0,0)"/>
<path d="" fill="#1EA57F" transform="translate(0,0)"/>
<path d="" fill="#ECDB2E" transform="translate(0,0)"/>
<path d="" fill="#2A6B55" transform="translate(0,0)"/>
<path d="" fill="#E7DA2E" transform="translate(0,0)"/>
<path d="" fill="#DDD32F" transform="translate(0,0)"/>
<path d="" fill="#2B6B55" transform="translate(0,0)"/>
<path d="" fill="#D5CB35" transform="translate(0,0)"/>
<path d="" fill="#2D6C55" transform="translate(0,0)"/>
<path d="" fill="#C1BF37" transform="translate(0,0)"/>
<path d="" fill="#2F6F56" transform="translate(0,0)"/>
<path d="" fill="#316C53" transform="translate(0,0)"/>
<path d="" fill="#306D55" transform="translate(0,0)"/>
<path d="" fill="#38B47C" transform="translate(0,0)"/>
<path d="" fill="#2F6955" transform="translate(0,0)"/>
<path d="" fill="#959C3F" transform="translate(0,0)"/>
<path d="" fill="#979F3F" transform="translate(0,0)"/>
<path d="" fill="#57BE70" transform="translate(0,0)"/>
<path d="" fill="#5AC270" transform="translate(0,0)"/>
<path d="" fill="#5DC171" transform="translate(0,0)"/>
<path d="" fill="#61C16C" transform="translate(0,0)"/>
<path d="" fill="#CDCA3F" transform="translate(0,0)"/>
<path d="" fill="#4A7651" transform="translate(0,0)"/>
<path d="" fill="#D3D242" transform="translate(0,0)"/>
<path d="" fill="#E2D635" transform="translate(0,0)"/>
<path d="" fill="#E9DF33" transform="translate(0,0)"/>
<path d="" fill="#D1DC43" transform="translate(0,0)"/>
<path d="" fill="#D2DD41" transform="translate(0,0)"/>
<path d="" fill="#DAE03C" transform="translate(0,0)"/>
<path d="" fill="#E9E336" transform="translate(0,0)"/>
<path d="" fill="#EFE532" transform="translate(0,0)"/>
<path d="" fill="#F4E930" transform="translate(0,0)"/>
<path d="" fill="#F5E82F" transform="translate(0,0)"/>
<path d="" fill="#F5E82E" transform="translate(0,0)"/>
<path d="" fill="#F5E72F" transform="translate(0,0)"/>
<path d="" fill="#F7E82E" transform="translate(0,0)"/>
<path d="" fill="#F8E82C" transform="translate(0,0)"/>
<path d="" fill="#F8E82F" transform="translate(0,0)"/>
<path d="" fill="#F7E72E" transform="translate(0,0)"/>
<path d="" fill="#F9E72F" transform="translate(0,0)"/>
<path d="" fill="#F5E72E" transform="translate(0,0)"/>
<path d="" fill="#ECDF33" transform="translate(0,0)"/>
<path d="" fill="#F1E232" transform="translate(0,0)"/>
<path d="" fill="#87C66D" transform="translate(0,0)"/>
<path d="" fill="#7FC66D" transform="translate(0,0)"/>
<path d="" fill="#F4E334" transform="translate(0,0)"/>
<path d="" fill="#41BB81" transform="translate(0,0)"/>
<path d="" fill="#46B580" transform="translate(0,0)"/>
<path d="" fill="#48C383" transform="translate(0,0)"/>
<path d="" fill="#48C381" transform="translate(0,0)"/>
<path d="" fill="#DFE33E" transform="translate(0,0)"/>
<path d="" fill="#FDEE32" transform="translate(0,0)"/>
<path d="" fill="#FEED2F" transform="translate(0,0)"/>
<path d="" fill="#4EC482" transform="translate(0,0)"/>
<path d="" fill="#F2E233" transform="translate(0,0)"/>
<path d="" fill="#E3E43F" transform="translate(0,0)"/>
<path d="" fill="#F4E235" transform="translate(0,0)"/>
<path d="" fill="#F3E936" transform="translate(0,0)"/>
<path d="" fill="#D3E046" transform="translate(0,0)"/>
<path d="" fill="#DACA33" transform="translate(0,0)"/>
<path d="" fill="#F6E635" transform="translate(0,0)"/>
<path d="" fill="#DACB34" transform="translate(0,0)"/>
<path d="" fill="#4AC883" transform="translate(0,0)"/>
<path d="" fill="#F1E333" transform="translate(0,0)"/>
<path d="" fill="#41BD83" transform="translate(0,0)"/>
<path d="" fill="#DAE041" transform="translate(0,0)"/>
<path d="" fill="#FAE834" transform="translate(0,0)"/>
<path d="" fill="#F2E139" transform="translate(0,0)"/>
<path d="" fill="#F1EC39" transform="translate(0,0)"/>
<path d="" fill="#D3DC43" transform="translate(0,0)"/>
<path d="" fill="#3FBC80" transform="translate(0,0)"/>
<path d="" fill="#FBEC32" transform="translate(0,0)"/>
<path d="" fill="#FBE931" transform="translate(0,0)"/>
<path d="" fill="#EEE43C" transform="translate(0,0)"/>
<path d="" fill="#FDEB33" transform="translate(0,0)"/>
<path d="" fill="#F1E43A" transform="translate(0,0)"/>
<path d="" fill="#7BD371" transform="translate(0,0)"/>
<path d="" fill="#E7E73B" transform="translate(0,0)"/>
<path d="" fill="#E9E93F" transform="translate(0,0)"/>
<path d="" fill="#ECEA3B" transform="translate(0,0)"/>
<path d="" fill="#EEEA39" transform="translate(0,0)"/>
<path d="" fill="#EFE639" transform="translate(0,0)"/>
<path d="" fill="#4ECD85" transform="translate(0,0)"/>
<path d="" fill="#F1E93A" transform="translate(0,0)"/>
<path d="" fill="#52CB84" transform="translate(0,0)"/>
<path d="" fill="#51CB84" transform="translate(0,0)"/>
<path d="" fill="#F6ED36" transform="translate(0,0)"/>
<path d="" fill="#58C981" transform="translate(0,0)"/>
<path d="" fill="#56D080" transform="translate(0,0)"/>
<path d="" fill="#76CB75" transform="translate(0,0)"/>
<path d="" fill="#FAEA39" transform="translate(0,0)"/>
<path d="" fill="#66D282" transform="translate(0,0)"/>
<path d="" fill="#67CD7A" transform="translate(0,0)"/>
<path d="" fill="#47C27F" transform="translate(0,0)"/>
<path d="" fill="#56C982" transform="translate(0,0)"/>
<path d="" fill="#48C37F" transform="translate(0,0)"/>
<path d="" fill="#65BC76" transform="translate(0,0)"/>
<path d="" fill="#52CB84" transform="translate(0,0)"/>
<path d="" fill="#55D081" transform="translate(0,0)"/>
<path d="" fill="#54C47E" transform="translate(0,0)"/>
<path d="" fill="#54BC77" transform="translate(0,0)"/>
<path d="" fill="#55C27C" transform="translate(0,0)"/>
<path d="" fill="#4AC57F" transform="translate(0,0)"/>
<path d="" fill="#51CB81" transform="translate(0,0)"/>
<path d="" fill="#53CC81" transform="translate(0,0)"/>
<path d="" fill="#50CB7F" transform="translate(0,0)"/>
<path d="" fill="#54CB83" transform="translate(0,0)"/>
<path d="" fill="#4FC37C" transform="translate(0,0)"/>
<path d="" fill="#55C980" transform="translate(0,0)"/>
<path d="" fill="#55CB82" transform="translate(0,0)"/>
<path d="" fill="#57D181" transform="translate(0,0)"/>
<path d="" fill="#50D181" transform="translate(0,0)"/>
<path d="" fill="#53CD82" transform="translate(0,0)"/>
<path d="" fill="#5DD282" transform="translate(0,0)"/>
<path d="" fill="#58D381" transform="translate(0,0)"/>
<path d="" fill="#4EC87C" transform="translate(0,0)"/>
<path d="" fill="#59D37F" transform="translate(0,0)"/>
<path d="" fill="#5AD681" transform="translate(0,0)"/>
<path d="" fill="#5AD782" transform="translate(0,0)"/>
<path d="" fill="#56CD7B" transform="translate(0,0)"/>
<path d="" fill="#5AD780" transform="translate(0,0)"/>
<path d="" fill="#60D682" transform="translate(0,0)"/>
<path d="" fill="#5AD27F" transform="translate(0,0)"/>
<path d="" fill="#60D780" transform="translate(0,0)"/>
<path d="" fill="#5CD07C" transform="translate(0,0)"/>
<path d="" fill="#5AD07D" transform="translate(0,0)"/>
<path d="" fill="#60D77D" transform="translate(0,0)"/>
<path d="" fill="#63D97D" transform="translate(0,0)"/>
<path d="" fill="#65D77C" transform="translate(0,0)"/>
<path d="" fill="#68D87C" transform="translate(0,0)"/>
<path d="" fill="#61D57C" transform="translate(0,0)"/>
<path d="" fill="#61D07C" transform="translate(0,0)"/>
<path d="" fill="#67DA7C" transform="translate(0,0)"/>
<path d="" fill="#6AD97D" transform="translate(0,0)"/>
<path d="" fill="#62DA7C" transform="translate(0,0)"/>
<path d="" fill="#65D67A" transform="translate(0,0)"/>
<path d="" fill="#69DA7F" transform="translate(0,0)"/>
<path d="" fill="#62D87C" transform="translate(0,0)"/>
<path d="" fill="#63D07B" transform="translate(0,0)"/>
<path d="" fill="#67DB7C" transform="translate(0,0)"/>
<path d="" fill="#68DA7B" transform="translate(0,0)"/>
<path d="" fill="#68DB7D" transform="translate(0,0)"/>
<path d="" fill="#5DD077" transform="translate(0,0)"/>
<path d="" fill="#6CDB7D" transform="translate(0,0)"/>
<path d="" fill="#6BD87D" transform="translate(0,0)"/>
<path d="" fill="#5FCF77" transform="translate(0,0)"/>
<path d="" fill="#69DC7E" transform="translate(0,0)"/>
<path d="" fill="#6BDE7C" transform="translate(0,0)"/>
<path d="" fill="#60D377" transform="translate(0,0)"/>
<path d="" fill="#6ADC7D" transform="translate(0,0)"/>
<path d="" fill="#5FCE77" transform="translate(0,0)"/>
<path d="" fill="#60D177" transform="translate(0,0)"/>
<path d="" fill="#68D37E" transform="translate(0,0)"/>
<path d="" fill="#5ED076" transform="translate(0,0)"/>
<path d="" fill="#63D277" transform="translate(0,0)"/>
<path d="" fill="#5FD179" transform="translate(0,0)"/>
<path d="" fill="#62D176" transform="translate(0,0)"/>
<path d="" fill="#61D175" transform="translate(0,0)"/>
<path d="" fill="#5FD374" transform="translate(0,0)"/>
<path d="" fill="#60CF79" transform="translate(0,0)"/>
<path d="" fill="#61CE77" transform="translate(0,0)"/>
<path d="" fill="#65D279" transform="translate(0,0)"/>
<path d="" fill="#63D578" transform="translate(0,0)"/>
<path d="" fill="#62CF77" transform="translate(0,0)"/>
<path d="" fill="#67D178" transform="translate(0,0)"/>
<path d="" fill="#63D477" transform="translate(0,0)"/>
<path d="" fill="#5ED178" transform="translate(0,0)"/>
<path d="" fill="#60D278" transform="translate(0,0)"/>
<path d="" fill="#66D379" transform="translate(0,0)"/>
<path d="" fill="#65D07A" transform="translate(0,0)"/>
<path d="" fill="#66D17A" transform="translate(0,0)"/>
<path d="" fill="#63D278" transform="translate(0,0)"/>
<path d="" fill="#63D479" transform="translate(0,0)"/>
<path d="" fill="#64D379" transform="translate(0,0)"/>
<path d="" fill="#66D177" transform="translate(0,0)"/>
</svg>
